<svg id="Iconly_Bold_Home" data-name="Iconly/Bold/Home" xmlns="http://www.w3.org/2000/svg" width="23.75" height="25" viewBox="0 0 23.75 25">
  <g id="Home">
    <path id="Home-2" data-name="Home" d="M8.293,23.467V19.645a1.773,1.773,0,0,1,1.78-1.767h3.593a1.786,1.786,0,0,1,1.258.517,1.76,1.76,0,0,1,.521,1.249v3.822a1.516,1.516,0,0,0,.445,1.084,1.539,1.539,0,0,0,1.088.45H19.43a4.325,4.325,0,0,0,3.054-1.249,4.262,4.262,0,0,0,1.266-3.029V9.834a3.091,3.091,0,0,0-1.119-2.378L14.293.845A3.872,3.872,0,0,0,9.357.934L1.209,7.456A3.092,3.092,0,0,0,0,9.834V20.711A4.3,4.3,0,0,0,4.32,25h2.4A1.539,1.539,0,0,0,8.26,23.478Z" transform="translate(0 0)" fill="#0f4c90"/>
  </g>
</svg>
