<svg xmlns="http://www.w3.org/2000/svg" width="24.933" height="26.5" viewBox="0 0 24.933 26.5">
  <g id="Iconly_Light_Setting" data-name="Iconly/Light/Setting" transform="translate(0.907 0.75)">
    <g id="Setting">
      <path id="Path_33946" d="M22.8,6.952l-.81-1.4a2.488,2.488,0,0,0-3.393-.917h0A2.476,2.476,0,0,1,15.2,3.75a2.381,2.381,0,0,1-.333-1.19h0A2.488,2.488,0,0,0,12.38,0H10.749A2.476,2.476,0,0,0,8.273,2.488h0A2.488,2.488,0,0,1,5.785,4.94a2.381,2.381,0,0,1-1.19-.333h0A2.488,2.488,0,0,0,1.2,5.524L.333,6.952a2.488,2.488,0,0,0,.9,3.393h0A2.488,2.488,0,0,1,2.481,12.5a2.488,2.488,0,0,1-1.244,2.155h0a2.476,2.476,0,0,0-.9,3.381h0l.821,1.417a2.488,2.488,0,0,0,3.393.964h0a2.464,2.464,0,0,1,3.381.9,2.381,2.381,0,0,1,.333,1.19h0A2.488,2.488,0,0,0,10.749,25H12.38a2.488,2.488,0,0,0,2.488-2.476h0a2.476,2.476,0,0,1,2.488-2.488,2.536,2.536,0,0,1,1.19.333h0a2.488,2.488,0,0,0,3.393-.9h0l.857-1.429a2.476,2.476,0,0,0-.9-3.393h0a2.476,2.476,0,0,1-.9-3.393,2.44,2.44,0,0,1,.9-.9h0a2.488,2.488,0,0,0,.9-3.381h0Z" transform="translate(0 0)" fill="none" stroke="#afafaf" stroke-linecap="round" stroke-linejoin="round" stroke-miterlimit="10" stroke-width="1.5"/>
      <circle id="Ellipse_737" cx="3.429" cy="3.429" r="3.429" transform="translate(8.142 9.071)" fill="none" stroke="#afafaf" stroke-linecap="round" stroke-linejoin="round" stroke-miterlimit="10" stroke-width="1.5"/>
    </g>
  </g>
</svg>
