<svg xmlns="http://www.w3.org/2000/svg" xmlns:xlink="http://www.w3.org/1999/xlink" width="270.301" height="247.627" viewBox="0 0 270.301 247.627">
  <defs>
    <clipPath id="clip-path">
      <rect id="Rectangle_127" data-name="Rectangle 127" width="270.301" height="247.627" fill="none"/>
    </clipPath>
    <clipPath id="clip-path-2">
      <rect id="Rectangle_128" data-name="Rectangle 128" width="270.301" height="247.627" fill="none" stroke="#fff" stroke-width="1"/>
    </clipPath>
    <clipPath id="clip-path-4">
      <rect id="Rectangle_129" data-name="Rectangle 129" width="81.079" height="106.854" fill="none"/>
    </clipPath>
    <clipPath id="clip-path-5">
      <rect id="Rectangle_130" data-name="Rectangle 130" width="66.283" height="78.265" fill="none"/>
    </clipPath>
    <clipPath id="clip-path-6">
      <rect id="Rectangle_131" data-name="Rectangle 131" width="81.078" height="106.854" fill="none"/>
    </clipPath>
    <clipPath id="clip-path-9">
      <path id="Path_692" data-name="Path 692" d="M217.342,256.068a26.516,26.516,0,0,0,0,13.735h28.685s-3.015-8.71,0-13.735Z" transform="translate(-216.448 -256.068)" fill="none"/>
    </clipPath>
    <clipPath id="clip-path-10">
      <rect id="Rectangle_137" data-name="Rectangle 137" width="30.253" height="14.408" fill="none"/>
    </clipPath>
    <clipPath id="clip-path-12">
      <path id="Path_699" data-name="Path 699" d="M218.009,300.735a26.506,26.506,0,0,0,0,13.735h28.236s-3.015-8.71,0-13.735Z" transform="translate(-217.115 -300.735)" fill="none"/>
    </clipPath>
    <clipPath id="clip-path-13">
      <rect id="Rectangle_141" data-name="Rectangle 141" width="29.804" height="14.408" fill="none"/>
    </clipPath>
  </defs>
  <g id="Group_282" data-name="Group 282" transform="translate(-79.558 -50)">
    <g id="Group_246" data-name="Group 246" transform="translate(79.558 50)">
      <g id="Group_245" data-name="Group 245" clip-path="url(#clip-path)">
        <path id="Path_631" data-name="Path 631" d="M240.862,37.358S224.4,5.371,188.061.632,126.346,19,99.6,30.842c-14.005,6.2-30,3.8-44.87,6.8C7.193,47.242-10.716,107.4,9.087,141.615c17.143,29.618,47.315,45.02,93.259,48.574s78.173,7.7,119.317-21.326,38.4-89.447,19.2-131.5" transform="translate(-0.371 0)" fill="#0F4C90"/>
      </g>
    </g>
    <g id="Group_248" data-name="Group 248" transform="translate(79.558 50)">
      <g id="Group_247" data-name="Group 247" clip-path="url(#clip-path-2)">
        <path id="Path_633" data-name="Path 633" d="M296.5,95.178l-7.069,29.495s2.438,3.413,3.413,4.388,3.169.975,3.9.975,28.276.488,28.276.488l5.418-36.076" transform="translate(-94.539 -30.85)" fill="none" stroke="#fff" stroke-linecap="round" stroke-linejoin="round" stroke-width="1"/>
        <line id="Line_1" data-name="Line 1" x1="2.248" y1="0.041" transform="translate(205.622 58.722)" fill="none" stroke="#fff" stroke-linecap="round" stroke-linejoin="round" stroke-width="1"/>
        <path id="Path_634" data-name="Path 634" d="M291.607,122.839l29.741-.1,6.335-35-21.812-.4" transform="translate(-95.249 -28.529)" fill="none" stroke="#fff" stroke-linecap="round" stroke-linejoin="round" stroke-width="1"/>
        <path id="Path_635" data-name="Path 635" d="M294.141,125.4l2.438,2.681,28.52.731,5.161-31.274-2.236-3.1" transform="translate(-96.076 -30.849)" fill="none" stroke="#fff" stroke-linecap="round" stroke-linejoin="round" stroke-width="1"/>
        <path id="Path_636" data-name="Path 636" d="M300.214,142.72h4.128s-.688,3.268-1.032,6.363-.516,7.051-.516,7.051l-2.408-4.472-2.924,3.784Z" transform="translate(-97.161 -46.617)" fill="#fff" stroke="#fff" stroke-width="1"/>
        <path id="Path_637" data-name="Path 637" d="M37.056,139.063l17.578-7.081s.855-2.477,1-3.326a3.873,3.873,0,0,0-.916-2.339c-.265-.372-9.991-14.574-9.991-14.574L24.394,122.047" transform="translate(-7.968 -36.499)" fill="none" stroke="#fff" stroke-linecap="round" stroke-linejoin="round" stroke-width="1"/>
        <line id="Line_2" data-name="Line 2" x2="0.793" y2="1.16" transform="translate(24.116 101.573)" fill="none" stroke="#fff" stroke-linecap="round" stroke-linejoin="round" stroke-width="1"/>
        <path id="Path_638" data-name="Path 638" d="M53.878,133.1l-10.82-15.108-20.116,9.449,7.7,11.25" transform="translate(-7.493 -38.541)" fill="none" stroke="#fff" stroke-linecap="round" stroke-linejoin="round" stroke-width="1"/>
        <path id="Path_639" data-name="Path 639" d="M54.553,130.764l.483-2.212L45.08,113.765l-17.792,8.7-.767,2.26" transform="translate(-8.663 -37.16)" fill="none" stroke="#fff" stroke-linecap="round" stroke-linejoin="round" stroke-width="1"/>
        <path id="Path_640" data-name="Path 640" d="M65.914,131.411l-1.495-2.1s1.913-.833,3.614-1.779,3.778-2.291,3.778-2.291l-1.405,2.845,2.986.119Z" transform="translate(-21.041 -40.908)" fill="#fff" stroke="#fff" stroke-width="1"/>
        <path id="Path_641" data-name="Path 641" d="M41.888,180.926l-1.393.7,12.321,23.57L73.44,183.23l25.177-7.767L86.028,155.374l-1.106.085" transform="translate(-13.227 -50.75)" fill="none" stroke="#fff" stroke-linecap="round" stroke-linejoin="round" stroke-width="1"/>
        <path id="Path_642" data-name="Path 642" d="M60.7,163.642l10.981,19.82s-4.821-1.071-5.893,3.482-5.892,10.445-8.035,13.124a39.486,39.486,0,0,1-4.285,4.553l-11.785-22.5a31.832,31.832,0,0,0,8.3-10.981C52.669,164.714,56.955,162.839,60.7,163.642Z" transform="translate(-13.617 -53.394)" fill="none" stroke="#fff" stroke-linecap="round" stroke-linejoin="round" stroke-width="1"/>
        <path id="Path_643" data-name="Path 643" d="M80.911,179.909s1.339-4.017,4.553-4.285,9.106.8,14.2-.8,5.893-2.143,5.893-2.143L93.232,152.59S90.286,155,82.785,155s-12.052,1.339-12.855,5.089Z" transform="translate(-22.841 -49.841)" fill="none" stroke="#fff" stroke-linecap="round" stroke-linejoin="round" stroke-width="1"/>
        <path id="Path_644" data-name="Path 644" d="M82.364,196.343a16.369,16.369,0,0,0-3.75,2.411c-1.875,1.607-3.481,4.553-6.7,8.571" transform="translate(-23.491 -64.132)" fill="none" stroke="#fff" stroke-linecap="round" stroke-linejoin="round" stroke-width="1"/>
        <path id="Path_645" data-name="Path 645" d="M90.613,190.969a7.618,7.618,0,0,1,4.821-2.679,49.427,49.427,0,0,0,16.338-3.481" transform="translate(-29.597 -60.365)" fill="none" stroke="#fff" stroke-linecap="round" stroke-linejoin="round" stroke-width="1"/>
        <path id="Path_646" data-name="Path 646" d="M47.655,187.883a91.6,91.6,0,0,0,6.428-8.3c3.75-5.357,6.428-7.5,9.375-7.5" transform="translate(-15.566 -56.207)" fill="none" stroke="#fff" stroke-linecap="round" stroke-linejoin="round" stroke-width="1"/>
        <path id="Path_647" data-name="Path 647" d="M50.837,193.054a91.494,91.494,0,0,0,6.428-8.3c3.75-5.357,6.428-7.5,9.375-7.5" transform="translate(-16.605 -57.896)" fill="none" stroke="#fff" stroke-linecap="round" stroke-linejoin="round" stroke-width="1"/>
        <path id="Path_648" data-name="Path 648" d="M54.019,198.225a91.646,91.646,0,0,0,6.428-8.3c3.75-5.357,6.428-7.5,9.375-7.5" transform="translate(-17.644 -59.585)" fill="none" stroke="#fff" stroke-linecap="round" stroke-linejoin="round" stroke-width="1"/>
        <path id="Path_649" data-name="Path 649" d="M57.2,203.395a91.456,91.456,0,0,0,6.428-8.3c3.75-5.357,6.428-7.5,9.375-7.5" transform="translate(-18.684 -61.274)" fill="none" stroke="#fff" stroke-linecap="round" stroke-linejoin="round" stroke-width="1"/>
        <path id="Path_650" data-name="Path 650" d="M76.691,166.576s1.071-2.946,5.089-2.946,12.891-.353,13.928-3.482" transform="translate(-25.05 -52.31)" fill="none" stroke="#fff" stroke-linecap="round" stroke-linejoin="round" stroke-width="1"/>
        <path id="Path_651" data-name="Path 651" d="M80.271,172.542s1.875-2.411,6.964-2.411,9.642-1.071,12.588-4.017" transform="translate(-26.219 -54.258)" fill="none" stroke="#fff" stroke-linecap="round" stroke-linejoin="round" stroke-width="1"/>
        <path id="Path_652" data-name="Path 652" d="M82.658,178.378a6.722,6.722,0,0,1,6.16-3.482c4.553,0,10.178-.8,13.392-3.214" transform="translate(-26.999 -56.077)" fill="none" stroke="#fff" stroke-linecap="round" stroke-linejoin="round" stroke-width="1"/>
        <path id="Path_653" data-name="Path 653" d="M85.442,183.014s.8-2.679,5.357-2.946a45.291,45.291,0,0,0,14.463-3.214" transform="translate(-27.908 -57.766)" fill="none" stroke="#fff" stroke-linecap="round" stroke-linejoin="round" stroke-width="1"/>
        <path id="Path_654" data-name="Path 654" d="M252.228,14.171l-.7-.806-13.549,12.28,18.185,9.918,9.529,15.407,11.185-11.855-.248-.721" transform="translate(-77.73 -4.365)" fill="none" stroke="#fff" stroke-linecap="round" stroke-linejoin="round" stroke-width="1"/>
        <path id="Path_655" data-name="Path 655" d="M269.737,23.06,258.452,33.8s-.122-3.394-3.337-3.318-7.971-2.112-10.123-3.073a27.151,27.151,0,0,1-3.772-2.063l12.929-11.737a21.875,21.875,0,0,0,8.744,3.622C267.633,17.9,269.622,20.426,269.737,23.06Z" transform="translate(-78.79 -4.445)" fill="none" stroke="#fff" stroke-linecap="round" stroke-linejoin="round" stroke-width="1"/>
        <path id="Path_656" data-name="Path 656" d="M266.812,38.382s2.9.2,3.64,2.287,1.042,6.2,2.993,9.306a23.417,23.417,0,0,0,2.446,3.549l11.232-11.677s-2.114-1.543-3.413-6.532-2.978-7.787-5.613-7.673Z" transform="translate(-87.15 -9.028)" fill="none" stroke="#fff" stroke-linecap="round" stroke-linejoin="round" stroke-width="1"/>
        <path id="Path_657" data-name="Path 657" d="M260.479,42.489a11.249,11.249,0,0,0-2.253-2.077c-1.395-.969-3.633-1.528-6.862-2.971" transform="translate(-82.104 -12.229)" fill="none" stroke="#fff" stroke-linecap="round" stroke-linejoin="round" stroke-width="1"/>
        <path id="Path_658" data-name="Path 658" d="M267.04,46.642a5.24,5.24,0,0,1,2.617,2.744A33.992,33.992,0,0,0,274.8,59.653" transform="translate(-87.224 -15.235)" fill="none" stroke="#fff" stroke-linecap="round" stroke-linejoin="round" stroke-width="1"/>
        <path id="Path_659" data-name="Path 659" d="M258.541,18.335a62.907,62.907,0,0,0,6.638,2.839c4.213,1.567,6.1,2.978,6.613,4.938" transform="translate(-84.448 -5.989)" fill="none" stroke="#fff" stroke-linecap="round" stroke-linejoin="round" stroke-width="1"/>
        <path id="Path_660" data-name="Path 660" d="M255.652,21.348a62.925,62.925,0,0,0,6.637,2.839c4.214,1.567,6.1,2.978,6.614,4.938" transform="translate(-83.504 -6.973)" fill="none" stroke="#fff" stroke-linecap="round" stroke-linejoin="round" stroke-width="1"/>
        <path id="Path_661" data-name="Path 661" d="M252.763,24.361A62.9,62.9,0,0,0,259.4,27.2c4.213,1.567,6.1,2.978,6.613,4.938" transform="translate(-82.561 -7.957)" fill="none" stroke="#fff" stroke-linecap="round" stroke-linejoin="round" stroke-width="1"/>
        <path id="Path_662" data-name="Path 662" d="M249.873,27.374a62.907,62.907,0,0,0,6.638,2.839c4.213,1.567,6.1,2.978,6.613,4.938" transform="translate(-81.617 -8.941)" fill="none" stroke="#fff" stroke-linecap="round" stroke-linejoin="round" stroke-width="1"/>
        <path id="Path_663" data-name="Path 663" d="M280.773,33.177a3.537,3.537,0,0,1,2.842,2.876c.7,2.673,2.467,8.515,4.729,8.664" transform="translate(-91.71 -10.837)" fill="none" stroke="#fff" stroke-linecap="round" stroke-linejoin="round" stroke-width="1"/>
        <path id="Path_664" data-name="Path 664" d="M277.423,36.592s1.928.83,2.81,4.216,2.383,6.23,4.854,7.68" transform="translate(-90.616 -11.952)" fill="none" stroke="#fff" stroke-linecap="round" stroke-linejoin="round" stroke-width="1"/>
        <path id="Path_665" data-name="Path 665" d="M273.866,39.213a4.62,4.62,0,0,1,3.384,3.5c.789,3.03,2.3,6.633,4.458,8.354" transform="translate(-89.454 -12.808)" fill="none" stroke="#fff" stroke-linecap="round" stroke-linejoin="round" stroke-width="1"/>
        <path id="Path_666" data-name="Path 666" d="M271.438,41.824s1.921.071,2.888,3.054a31.143,31.143,0,0,0,4.644,9.067" transform="translate(-88.661 -13.661)" fill="none" stroke="#fff" stroke-linecap="round" stroke-linejoin="round" stroke-width="1"/>
        <path id="Path_667" data-name="Path 667" d="M108.2,53.695,96.952,71.334l2.433.608,11.253-16.727,17.943,10.34,2.434-2.433-19.769-10.34" transform="translate(-31.668 -17.24)" fill="none" stroke="#fff" stroke-linecap="round" stroke-linejoin="round" stroke-width="1"/>
        <path id="Path_668" data-name="Path 668" d="M117.276,56.4l4.866,29.2,14.9,8.515-2.129-25.851" transform="translate(-38.306 -18.421)" fill="none" stroke="#fff" stroke-linecap="round" stroke-linejoin="round" stroke-width="1"/>
        <path id="Path_669" data-name="Path 669" d="M146.633,97.943l2.433-4.562-1.825-25.242" transform="translate(-47.895 -22.256)" fill="none" stroke="#fff" stroke-linecap="round" stroke-linejoin="round" stroke-width="1"/>
        <path id="Path_670" data-name="Path 670" d="M117.127,94.885l-10.036,13.686-5.17-23.721" transform="translate(-33.291 -27.715)" fill="none" stroke="#fff" stroke-linecap="round" stroke-linejoin="round" stroke-width="1"/>
        <path id="Path_671" data-name="Path 671" d="M96.952,80.333l5.778,26.459,2.737.3" transform="translate(-31.668 -26.239)" fill="none" stroke="#fff" stroke-linecap="round" stroke-linejoin="round" stroke-width="1"/>
        <line id="Line_3" data-name="Line 3" x1="7.907" y2="10.948" transform="translate(71.671 48.011)" fill="none" stroke="#fff" stroke-linecap="round" stroke-linejoin="round" stroke-width="1"/>
        <line id="Line_4" data-name="Line 4" x1="7.907" y2="10.948" transform="translate(72.279 53.181)" fill="none" stroke="#fff" stroke-linecap="round" stroke-linejoin="round" stroke-width="1"/>
        <line id="Line_5" data-name="Line 5" x1="7.907" y2="10.948" transform="translate(72.887 58.351)" fill="none" stroke="#fff" stroke-linecap="round" stroke-linejoin="round" stroke-width="1"/>
        <line id="Line_6" data-name="Line 6" x1="7.907" y2="10.948" transform="translate(73.496 63.521)" fill="none" stroke="#fff" stroke-linecap="round" stroke-linejoin="round" stroke-width="1"/>
        <line id="Line_7" data-name="Line 7" x2="10.645" y2="6.083" transform="translate(82.924 48.315)" fill="none" stroke="#fff" stroke-linecap="round" stroke-linejoin="round" stroke-width="1"/>
        <line id="Line_8" data-name="Line 8" x2="10.645" y2="6.083" transform="translate(82.924 53.181)" fill="none" stroke="#fff" stroke-linecap="round" stroke-linejoin="round" stroke-width="1"/>
        <line id="Line_9" data-name="Line 9" x2="10.645" y2="6.083" transform="translate(84.444 58.351)" fill="none" stroke="#fff" stroke-linecap="round" stroke-linejoin="round" stroke-width="1"/>
        <line id="Line_10" data-name="Line 10" x2="10.645" y2="6.083" transform="translate(84.748 63.521)" fill="none" stroke="#fff" stroke-linecap="round" stroke-linejoin="round" stroke-width="1"/>
        <path id="Path_672" data-name="Path 672" d="M331.019,235.067l9.419-18.683-2.482-.36L328.445,233.8l-18.893-8.48-2.176,2.665,20.709,8.3" transform="translate(-100.399 -70.561)" fill="none" stroke="#fff" stroke-linecap="round" stroke-linejoin="round" stroke-width="1"/>
        <path id="Path_673" data-name="Path 673" d="M327.282,225.187,319.5,196.63l-15.684-6.971,4.722,25.5" transform="translate(-99.237 -61.949)" fill="none" stroke="#fff" stroke-linecap="round" stroke-linejoin="round" stroke-width="1"/>
        <path id="Path_674" data-name="Path 674" d="M302.866,189.658l-1.961,4.784,4.358,24.93" transform="translate(-98.285 -61.949)" fill="none" stroke="#fff" stroke-linecap="round" stroke-linejoin="round" stroke-width="1"/>
        <path id="Path_675" data-name="Path 675" d="M327.109,192.916l8.607-14.627,7.532,23.081" transform="translate(-106.845 -58.235)" fill="none" stroke="#fff" stroke-linecap="round" stroke-linejoin="round" stroke-width="1"/>
        <path id="Path_676" data-name="Path 676" d="M351.058,204.059l-8.414-25.742-2.753-.027" transform="translate(-111.02 -58.235)" fill="none" stroke="#fff" stroke-linecap="round" stroke-linejoin="round" stroke-width="1"/>
        <line id="Line_11" data-name="Line 11" y1="11.689" x2="6.765" transform="translate(226.43 141.626)" fill="none" stroke="#fff" stroke-linecap="round" stroke-linejoin="round" stroke-width="1"/>
        <line id="Line_12" data-name="Line 12" y1="11.689" x2="6.765" transform="translate(225.304 136.543)" fill="none" stroke="#fff" stroke-linecap="round" stroke-linejoin="round" stroke-width="1"/>
        <line id="Line_13" data-name="Line 13" y1="11.689" x2="6.765" transform="translate(224.178 131.461)" fill="none" stroke="#fff" stroke-linecap="round" stroke-linejoin="round" stroke-width="1"/>
        <line id="Line_14" data-name="Line 14" y1="11.689" x2="6.765" transform="translate(223.053 126.378)" fill="none" stroke="#fff" stroke-linecap="round" stroke-linejoin="round" stroke-width="1"/>
        <line id="Line_15" data-name="Line 15" x1="11.203" y1="4.98" transform="translate(211.868 148.369)" fill="none" stroke="#fff" stroke-linecap="round" stroke-linejoin="round" stroke-width="1"/>
        <line id="Line_16" data-name="Line 16" x1="11.203" y1="4.98" transform="translate(211.378 143.528)" fill="none" stroke="#fff" stroke-linecap="round" stroke-linejoin="round" stroke-width="1"/>
        <line id="Line_17" data-name="Line 17" x1="11.203" y1="4.98" transform="translate(209.345 138.537)" fill="none" stroke="#fff" stroke-linecap="round" stroke-linejoin="round" stroke-width="1"/>
        <line id="Line_18" data-name="Line 18" x1="11.203" y1="4.98" transform="translate(208.521 133.424)" fill="none" stroke="#fff" stroke-linecap="round" stroke-linejoin="round" stroke-width="1"/>
      </g>
    </g>
    <g id="Group_262" data-name="Group 262" transform="translate(79.558 50)">
      <g id="Group_261" data-name="Group 261" clip-path="url(#clip-path)">
        <path id="Path_677" data-name="Path 677" d="M261.282,234.211c-1.889,4.664-3.827.913-3.52-18.637.144-9.162.789-27.883,10.923-23.762,9.736,3.959-3.094,31.639-3.094,31.639Zm13.917,2.772s21.124-22.012,13.2-28.919c-8.246-7.188-14.937,10.309-18.048,18.928-6.639,18.39-6.025,22.567-2.722,18.77Zm4.454,19.756s19.34-13.768,14.284-20.2c-5.263-6.691-12.913,5.718-16.541,11.856-7.741,13.1-7.876,16.38-4.8,13.956Zm5.235,19.7s19.34-13.769,14.284-20.2c-5.263-6.691-12.913,5.717-16.541,11.856-7.741,13.1-7.876,16.38-4.8,13.956Zm-33.775-39.6s-27.063-14.086-31.464-4.542c-4.581,9.934,14.091,11.437,23.237,12,19.516,1.2,23.35-.56,18.779-2.662Zm3.811,15.506s-29.322-8.425-31.738,1.8c-2.515,10.647,16.083,8.408,25.159,7.142,19.365-2.7,22.773-5.191,17.875-6.342Zm6.712,16.906s-24.992-6.447-26.8,2.259c-1.881,9.061,13.8,6.738,21.441,5.458,16.314-2.731,19.138-4.916,14.969-5.776Zm3.912,13.956s-24.167-9.063-26.888-.6c-2.832,8.811,13,8.165,20.741,7.7,16.511-.984,19.552-2.857,15.5-4.155Zm-16.18-70.7s-11.033-34.286-23.556-28.059c-13.034,6.482,2.026,21.944,9.559,29.345,16.073,15.793,21.045,16.9,18.93,11.388Z" transform="translate(-71.512 -59.998)" fill="#fba55f"/>
        <g id="Group_251" data-name="Group 251" transform="translate(147.425 123.687)" opacity="0.65">
          <g id="Group_250" data-name="Group 250">
            <g id="Group_249" data-name="Group 249" clip-path="url(#clip-path-4)">
              <path id="Path_678" data-name="Path 678" d="M261.282,234.211c-1.889,4.664-3.827.913-3.52-18.637.144-9.162.789-27.883,10.923-23.762,9.736,3.959-3.094,31.639-3.094,31.639Zm13.917,2.772s21.124-22.012,13.2-28.919c-8.246-7.188-14.937,10.309-18.048,18.928-6.639,18.39-6.025,22.567-2.722,18.77Zm4.454,19.756s19.34-13.768,14.284-20.2c-5.263-6.691-12.913,5.718-16.541,11.856-7.741,13.1-7.876,16.38-4.8,13.956Zm5.235,19.7s19.34-13.769,14.284-20.2c-5.263-6.691-12.913,5.717-16.541,11.856-7.741,13.1-7.876,16.38-4.8,13.956Zm-33.775-39.6s-27.063-14.086-31.464-4.542c-4.581,9.934,14.091,11.437,23.237,12,19.516,1.2,23.35-.56,18.779-2.662Zm3.811,15.506s-29.322-8.425-31.738,1.8c-2.515,10.647,16.083,8.408,25.159,7.142,19.365-2.7,22.773-5.191,17.875-6.342Zm6.712,16.906s-24.992-6.447-26.8,2.259c-1.881,9.061,13.8,6.738,21.441,5.458,16.314-2.731,19.138-4.916,14.969-5.776Zm3.912,13.956s-24.167-9.063-26.888-.6c-2.832,8.811,13,8.165,20.741,7.7,16.511-.984,19.552-2.857,15.5-4.155Zm-16.18-70.7s-11.033-34.286-23.556-28.059c-13.034,6.482,2.026,21.944,9.559,29.345,16.073,15.793,21.045,16.9,18.93,11.388Z" transform="translate(-218.937 -183.685)" fill="#fff"/>
            </g>
          </g>
        </g>
        <path id="Path_679" data-name="Path 679" d="M236.927,202.951s27.708,33.806,34.338,50.729c7.616,19.443,12.805,41.348,13.833,59.488" transform="translate(-77.388 -66.291)" fill="none" stroke="#ccc" stroke-linecap="round" stroke-linejoin="round" stroke-width="1.252"/>
        <line id="Line_19" data-name="Line 19" y1="32.238" x2="3.854" transform="translate(188.36 144.111)" fill="none" stroke="#ccc" stroke-linecap="round" stroke-linejoin="round" stroke-width="1.252"/>
        <line id="Line_20" data-name="Line 20" y1="27.097" x2="13.939" transform="translate(193.876 160.292)" fill="none" stroke="#ccc" stroke-linecap="round" stroke-linejoin="round" stroke-width="1.252"/>
        <line id="Line_21" data-name="Line 21" x1="29.192" y1="5.946" transform="translate(162.648 177.427)" fill="none" stroke="#ccc" stroke-linecap="round" stroke-linejoin="round" stroke-width="1.252"/>
        <line id="Line_22" data-name="Line 22" y1="19.555" x2="17.164" transform="translate(199.361 183.209)" fill="none" stroke="#ccc" stroke-linecap="round" stroke-linejoin="round" stroke-width="1.252"/>
        <line id="Line_23" data-name="Line 23" x1="22.038" y1="0.191" transform="translate(174.924 196.131)" fill="none" stroke="#ccc" stroke-linecap="round" stroke-linejoin="round" stroke-width="1.252"/>
        <line id="Line_24" data-name="Line 24" x1="16.901" y2="0.669" transform="translate(184.304 212.322)" fill="none" stroke="#ccc" stroke-linecap="round" stroke-linejoin="round" stroke-width="1.252"/>
        <line id="Line_25" data-name="Line 25" y1="12.065" x2="9.051" transform="translate(204.677 210.468)" fill="none" stroke="#ccc" stroke-linecap="round" stroke-linejoin="round" stroke-width="1.252"/>
        <line id="Line_26" data-name="Line 26" x1="19.767" y1="0.983" transform="translate(185.571 226.036)" fill="none" stroke="#ccc" stroke-linecap="round" stroke-linejoin="round" stroke-width="1.252"/>
        <path id="Path_680" data-name="Path 680" d="M342.025,277.077c-3.41,1.287-2.367-1.587,8.183-11.033,4.945-4.427,15.219-13.286,18.009-5.87,2.679,7.125-18.351,13.906-18.351,13.906Zm5.366,8.765s22.092.417,21.872-7.192c-.23-7.919-12.826-2.878-18.94-.3-13.046,5.507-14.965,7.887-11.322,7.777Zm-8.319,12.08s16.831,3.52,17.765-2.33c.972-6.088-9.389-4.058-14.437-2.971-10.773,2.32-12.585,3.862-9.784,4.305Zm-7.9,12.467s16.831,3.52,17.765-2.33c.972-6.088-9.389-4.058-14.437-2.971-10.773,2.32-12.585,3.862-9.784,4.306Zm4.464-37.432s-5.809-21.319-13.05-18.969c-7.536,2.446.843,13.117,5.039,18.26,8.952,10.972,11.775,12.145,10.646,8.68Zm-6.375,9.649s-9.931-19.739-16.559-16c-6.9,3.9,3.434,12.688,8.567,16.893,10.955,8.974,13.955,9.563,12.16,6.391Zm-5.693,11.88s-8.855-16.462-14.374-13.144c-5.745,3.454,3.2,10.65,7.635,14.087,9.472,7.335,12.022,7.764,10.43,5.123Zm-5.5,8.941s-7.058-17.31-12.9-14.6c-6.078,2.825,2.048,10.929,6.1,14.819,8.639,8.3,11.13,9,9.828,6.2Zm29.656-43.359s12.815-22.721,3.347-26.322c-9.855-3.747-10.677,11.863-10.911,19.509-.5,16.313,1.353,19.5,3.247,15.667Z" transform="translate(-98.964 -76.162)" fill="#fba55f"/>
        <g id="Group_254" data-name="Group 254" transform="translate(204.018 157.012)" opacity="0.65">
          <g id="Group_253" data-name="Group 253">
            <g id="Group_252" data-name="Group 252" clip-path="url(#clip-path-5)">
              <path id="Path_681" data-name="Path 681" d="M342.025,277.077c-3.41,1.287-2.367-1.587,8.183-11.033,4.945-4.427,15.219-13.286,18.009-5.87,2.679,7.125-18.351,13.906-18.351,13.906Zm5.366,8.765s22.092.417,21.872-7.192c-.23-7.919-12.826-2.878-18.94-.3-13.046,5.507-14.965,7.887-11.322,7.777Zm-8.319,12.08s16.831,3.52,17.765-2.33c.972-6.088-9.389-4.058-14.437-2.971-10.773,2.32-12.585,3.862-9.784,4.305Zm-7.9,12.467s16.831,3.52,17.765-2.33c.972-6.088-9.389-4.058-14.437-2.971-10.773,2.32-12.585,3.862-9.784,4.306Zm4.464-37.432s-5.809-21.319-13.05-18.969c-7.536,2.446.843,13.117,5.039,18.26,8.952,10.972,11.775,12.145,10.646,8.68Zm-6.375,9.649s-9.931-19.739-16.559-16c-6.9,3.9,3.434,12.688,8.567,16.893,10.955,8.974,13.955,9.563,12.16,6.391Zm-5.693,11.88s-8.855-16.462-14.374-13.144c-5.745,3.454,3.2,10.65,7.635,14.087,9.472,7.335,12.022,7.764,10.43,5.123Zm-5.5,8.941s-7.058-17.31-12.9-14.6c-6.078,2.825,2.048,10.929,6.1,14.819,8.639,8.3,11.13,9,9.828,6.2Zm29.656-43.359s12.815-22.721,3.347-26.322c-9.855-3.747-10.677,11.863-10.911,19.509-.5,16.313,1.353,19.5,3.247,15.667Z" transform="translate(-302.982 -233.174)" fill="#e5e5e5"/>
            </g>
          </g>
        </g>
        <path id="Path_682" data-name="Path 682" d="M351.194,247.08s-4.363,31.355-10.106,43.2c-6.6,13.608-16.555,28.091-25.7,37.554" transform="translate(-103.017 -80.705)" fill="none" stroke="#ccc" stroke-linecap="round" stroke-linejoin="round" stroke-width="1.252"/>
        <line id="Line_27" data-name="Line 27" y1="13.797" x2="19.042" transform="translate(241.232 187.418)" fill="none" stroke="#ccc" stroke-linecap="round" stroke-linejoin="round" stroke-width="1.252"/>
        <line id="Line_28" data-name="Line 28" y1="5.905" x2="21.265" transform="translate(238.071 203.67)" fill="none" stroke="#ccc" stroke-linecap="round" stroke-linejoin="round" stroke-width="1.252"/>
        <line id="Line_29" data-name="Line 29" x1="11.186" y1="18.451" transform="translate(228.021 188.067)" fill="none" stroke="#ccc" stroke-linecap="round" stroke-linejoin="round" stroke-width="1.252"/>
        <line id="Line_30" data-name="Line 30" y1="0.481" x2="18.838" transform="translate(232.589 219.568)" fill="none" stroke="#ccc" stroke-linecap="round" stroke-linejoin="round" stroke-width="1.252"/>
        <line id="Line_31" data-name="Line 31" x1="10.731" y1="11.816" transform="translate(224.106 203.791)" fill="none" stroke="#ccc" stroke-linecap="round" stroke-linejoin="round" stroke-width="1.252"/>
        <line id="Line_32" data-name="Line 32" x1="8.663" y1="8.662" transform="translate(219.748 217.067)" fill="none" stroke="#ccc" stroke-linecap="round" stroke-linejoin="round" stroke-width="1.252"/>
        <line id="Line_33" data-name="Line 33" y1="1.116" x2="10.866" transform="translate(224.687 231.479)" fill="none" stroke="#ccc" stroke-linecap="round" stroke-linejoin="round" stroke-width="1.252"/>
        <line id="Line_34" data-name="Line 34" x1="9.193" y1="10.998" transform="translate(213.432 224.154)" fill="none" stroke="#ccc" stroke-linecap="round" stroke-linejoin="round" stroke-width="1.252"/>
        <path id="Path_683" data-name="Path 683" d="M100.807,234.211c1.889,4.664,3.827.913,3.52-18.637-.144-9.162-.789-27.883-10.923-23.762-9.736,3.959,3.094,31.639,3.094,31.639ZM86.89,236.983s-21.124-22.012-13.2-28.919c8.246-7.188,14.937,10.309,18.048,18.928,6.639,18.39,6.025,22.567,2.722,18.77Zm-4.454,19.756s-19.34-13.768-14.284-20.2c5.263-6.691,12.913,5.718,16.541,11.856,7.741,13.1,7.876,16.38,4.8,13.956Zm-5.235,19.7s-19.34-13.769-14.284-20.2c5.263-6.691,12.913,5.717,16.541,11.856,7.741,13.1,7.876,16.38,4.8,13.956Zm33.775-39.6s27.063-14.086,31.464-4.542c4.581,9.934-14.091,11.437-23.237,12-19.515,1.2-23.35-.56-18.778-2.662Zm-3.811,15.506s29.322-8.425,31.738,1.8c2.515,10.647-16.083,8.408-25.159,7.142-19.365-2.7-22.773-5.191-17.875-6.342Zm-6.712,16.906s24.991-6.447,26.8,2.259c1.881,9.061-13.8,6.738-21.441,5.458-16.314-2.731-19.138-4.916-14.969-5.776ZM96.541,283.2s24.167-9.063,26.888-.6c2.832,8.811-13,8.165-20.741,7.7-16.511-.984-19.552-2.857-15.5-4.155Zm16.18-70.7s11.033-34.286,23.556-28.059c13.034,6.482-2.026,21.944-9.559,29.345-16.073,15.793-21.045,16.9-18.93,11.388Z" transform="translate(-20.275 -59.998)" fill="#fba55f"/>
        <g id="Group_257" data-name="Group 257" transform="translate(41.798 123.687)" opacity="0.65">
          <g id="Group_256" data-name="Group 256">
            <g id="Group_255" data-name="Group 255" clip-path="url(#clip-path-6)">
              <path id="Path_684" data-name="Path 684" d="M100.807,234.211c1.889,4.664,3.827.913,3.52-18.637-.144-9.162-.789-27.883-10.923-23.762-9.736,3.959,3.094,31.639,3.094,31.639ZM86.89,236.983s-21.124-22.012-13.2-28.919c8.246-7.188,14.937,10.309,18.048,18.928,6.639,18.39,6.025,22.567,2.722,18.77Zm-4.454,19.756s-19.34-13.768-14.284-20.2c5.263-6.691,12.913,5.718,16.541,11.856,7.741,13.1,7.876,16.38,4.8,13.956Zm-5.235,19.7s-19.34-13.769-14.284-20.2c5.263-6.691,12.913,5.717,16.541,11.856,7.741,13.1,7.876,16.38,4.8,13.956Zm33.775-39.6s27.063-14.086,31.464-4.542c4.581,9.934-14.091,11.437-23.237,12-19.515,1.2-23.35-.56-18.778-2.662Zm-3.811,15.506s29.322-8.425,31.738,1.8c2.515,10.647-16.083,8.408-25.159,7.142-19.365-2.7-22.773-5.191-17.875-6.342Zm-6.712,16.906s24.991-6.447,26.8,2.259c1.881,9.061-13.8,6.738-21.441,5.458-16.314-2.731-19.138-4.916-14.969-5.776ZM96.541,283.2s24.167-9.063,26.888-.6c2.832,8.811-13,8.165-20.741,7.7-16.511-.984-19.552-2.857-15.5-4.155Zm16.18-70.7s11.033-34.286,23.556-28.059c13.034,6.482-2.026,21.944-9.559,29.345-16.073,15.793-21.045,16.9-18.93,11.388Z" transform="translate(-62.073 -183.685)" fill="#fff"/>
            </g>
          </g>
        </g>
        <path id="Path_685" data-name="Path 685" d="M141.124,202.951s-27.708,33.806-34.338,50.729c-7.616,19.443-12.805,41.348-13.833,59.488" transform="translate(-30.362 -66.291)" fill="none" stroke="#ccc" stroke-linecap="round" stroke-linejoin="round" stroke-width="1.252"/>
        <line id="Line_35" data-name="Line 35" x1="3.854" y1="32.238" transform="translate(78.087 144.111)" fill="none" stroke="#ccc" stroke-linecap="round" stroke-linejoin="round" stroke-width="1.252"/>
        <line id="Line_36" data-name="Line 36" x1="13.939" y1="27.097" transform="translate(62.486 160.292)" fill="none" stroke="#ccc" stroke-linecap="round" stroke-linejoin="round" stroke-width="1.252"/>
        <line id="Line_37" data-name="Line 37" y1="5.946" x2="29.192" transform="translate(78.46 177.427)" fill="none" stroke="#ccc" stroke-linecap="round" stroke-linejoin="round" stroke-width="1.252"/>
        <line id="Line_38" data-name="Line 38" x1="17.164" y1="19.555" transform="translate(53.776 183.209)" fill="none" stroke="#ccc" stroke-linecap="round" stroke-linejoin="round" stroke-width="1.252"/>
        <line id="Line_39" data-name="Line 39" y1="0.191" x2="22.038" transform="translate(73.339 196.131)" fill="none" stroke="#ccc" stroke-linecap="round" stroke-linejoin="round" stroke-width="1.252"/>
        <line id="Line_40" data-name="Line 40" x2="16.901" y2="0.669" transform="translate(69.096 212.322)" fill="none" stroke="#ccc" stroke-linecap="round" stroke-linejoin="round" stroke-width="1.252"/>
        <line id="Line_41" data-name="Line 41" x1="9.051" y1="12.065" transform="translate(56.573 210.468)" fill="none" stroke="#ccc" stroke-linecap="round" stroke-linejoin="round" stroke-width="1.252"/>
        <line id="Line_42" data-name="Line 42" y1="0.983" x2="19.767" transform="translate(64.962 226.036)" fill="none" stroke="#ccc" stroke-linecap="round" stroke-linejoin="round" stroke-width="1.252"/>
        <path id="Path_686" data-name="Path 686" d="M27.24,277.077c3.41,1.287,2.367-1.587-8.183-11.033-4.945-4.427-15.219-13.286-18.009-5.87-2.68,7.125,18.35,13.906,18.35,13.906Zm-5.366,8.765S-.219,286.259,0,278.65c.23-7.919,12.826-2.878,18.94-.3,13.046,5.507,14.965,7.887,11.322,7.777Zm8.319,12.08s-16.831,3.52-17.765-2.33c-.972-6.088,9.389-4.058,14.437-2.971,10.773,2.32,12.585,3.862,9.784,4.305Zm7.9,12.467s-16.831,3.52-17.765-2.33c-.972-6.088,9.389-4.058,14.437-2.971,10.773,2.32,12.585,3.862,9.784,4.306Zm-4.464-37.432s5.809-21.319,13.05-18.969c7.536,2.446-.843,13.117-5.038,18.26-8.952,10.972-11.776,12.145-10.647,8.68Zm6.375,9.649s9.931-19.739,16.559-16c6.9,3.9-3.434,12.688-8.567,16.893-10.955,8.974-13.955,9.563-12.159,6.391Zm5.693,11.88s8.855-16.462,14.374-13.144c5.744,3.454-3.2,10.65-7.635,14.087-9.472,7.335-12.022,7.764-10.43,5.123Zm5.5,8.941s7.058-17.31,12.9-14.6c6.078,2.825-2.048,10.929-6.1,14.819-8.639,8.3-11.13,9-9.828,6.2ZM21.547,260.068S8.732,237.346,18.2,233.746c9.855-3.747,10.677,11.863,10.911,19.509.5,16.313-1.353,19.5-3.247,15.667Z" transform="translate(0 -76.162)" fill="#fba55f"/>
        <g id="Group_260" data-name="Group 260" transform="translate(0 157.012)" opacity="0.65">
          <g id="Group_259" data-name="Group 259">
            <g id="Group_258" data-name="Group 258" clip-path="url(#clip-path-5)">
              <path id="Path_687" data-name="Path 687" d="M27.24,277.077c3.41,1.287,2.367-1.587-8.183-11.033-4.945-4.427-15.219-13.286-18.009-5.87-2.68,7.125,18.35,13.906,18.35,13.906Zm-5.366,8.765S-.219,286.259,0,278.65c.23-7.919,12.826-2.878,18.94-.3,13.046,5.507,14.965,7.887,11.322,7.777Zm8.319,12.08s-16.831,3.52-17.765-2.33c-.972-6.088,9.389-4.058,14.437-2.971,10.773,2.32,12.585,3.862,9.784,4.305Zm7.9,12.467s-16.831,3.52-17.765-2.33c-.972-6.088,9.389-4.058,14.437-2.971,10.773,2.32,12.585,3.862,9.784,4.306Zm-4.464-37.432s5.809-21.319,13.05-18.969c7.536,2.446-.843,13.117-5.038,18.26-8.952,10.972-11.776,12.145-10.647,8.68Zm6.375,9.649s9.931-19.739,16.559-16c6.9,3.9-3.434,12.688-8.567,16.893-10.955,8.974-13.955,9.563-12.159,6.391Zm5.693,11.88s8.855-16.462,14.374-13.144c5.744,3.454-3.2,10.65-7.635,14.087-9.472,7.335-12.022,7.764-10.43,5.123Zm5.5,8.941s7.058-17.31,12.9-14.6c6.078,2.825-2.048,10.929-6.1,14.819-8.639,8.3-11.13,9-9.828,6.2ZM21.547,260.068S8.732,237.346,18.2,233.746c9.855-3.747,10.677,11.863,10.911,19.509.5,16.313-1.353,19.5-3.247,15.667Z" transform="translate(0 -233.174)" fill="#e5e5e5"/>
            </g>
          </g>
        </g>
        <path id="Path_688" data-name="Path 688" d="M32.855,247.08s4.363,31.355,10.106,43.2c6.6,13.608,16.555,28.091,25.7,37.554" transform="translate(-10.732 -80.705)" fill="none" stroke="#ccc" stroke-linecap="round" stroke-linejoin="round" stroke-width="1.252"/>
        <line id="Line_43" data-name="Line 43" x1="19.042" y1="13.797" transform="translate(10.026 187.418)" fill="none" stroke="#ccc" stroke-linecap="round" stroke-linejoin="round" stroke-width="1.252"/>
        <line id="Line_44" data-name="Line 44" x1="21.265" y1="5.905" transform="translate(10.965 203.67)" fill="none" stroke="#ccc" stroke-linecap="round" stroke-linejoin="round" stroke-width="1.252"/>
        <line id="Line_45" data-name="Line 45" y1="18.451" x2="11.186" transform="translate(31.094 188.067)" fill="none" stroke="#ccc" stroke-linecap="round" stroke-linejoin="round" stroke-width="1.252"/>
        <line id="Line_46" data-name="Line 46" x1="18.838" y1="0.481" transform="translate(18.874 219.568)" fill="none" stroke="#ccc" stroke-linecap="round" stroke-linejoin="round" stroke-width="1.252"/>
        <line id="Line_47" data-name="Line 47" y1="11.816" x2="10.731" transform="translate(35.464 203.791)" fill="none" stroke="#ccc" stroke-linecap="round" stroke-linejoin="round" stroke-width="1.252"/>
        <line id="Line_48" data-name="Line 48" y1="8.662" x2="8.663" transform="translate(41.89 217.067)" fill="none" stroke="#ccc" stroke-linecap="round" stroke-linejoin="round" stroke-width="1.252"/>
        <line id="Line_49" data-name="Line 49" x1="10.866" y1="1.116" transform="translate(34.748 231.479)" fill="none" stroke="#ccc" stroke-linecap="round" stroke-linejoin="round" stroke-width="1.252"/>
        <line id="Line_50" data-name="Line 50" y1="10.998" x2="9.193" transform="translate(47.676 224.154)" fill="none" stroke="#ccc" stroke-linecap="round" stroke-linejoin="round" stroke-width="1.252"/>
      </g>
    </g>
    <rect id="Rectangle_134" data-name="Rectangle 134" width="71.188" height="14.572" transform="translate(169.629 221.926)" fill="#fff"/>
    <rect id="Rectangle_135" data-name="Rectangle 135" width="71.188" height="14.572" transform="translate(169.629 221.926)" fill="none" stroke="#263238" stroke-linecap="round" stroke-linejoin="round" stroke-width="1"/>
    <line id="Line_51" data-name="Line 51" x2="12.497" transform="translate(170.364 225.706)" fill="none" stroke="#263238" stroke-linecap="round" stroke-linejoin="round" stroke-width="1"/>
    <line id="Line_52" data-name="Line 52" x2="1.704" transform="translate(187.027 229.682)" fill="none" stroke="#263238" stroke-linecap="round" stroke-linejoin="round" stroke-width="1"/>
    <line id="Line_53" data-name="Line 53" x2="14.012" transform="translate(170.175 229.682)" fill="none" stroke="#263238" stroke-linecap="round" stroke-linejoin="round" stroke-width="1"/>
    <line id="Line_54" data-name="Line 54" x2="5.767" transform="translate(170.466 233.802)" fill="none" stroke="#263238" stroke-linecap="round" stroke-linejoin="round" stroke-width="1"/>
    <g id="Group_264" data-name="Group 264" transform="translate(79.558 50)">
      <g id="Group_263" data-name="Group 263" clip-path="url(#clip-path)">
        <path id="Path_689" data-name="Path 689" d="M217.342,256.069a26.513,26.513,0,0,0,0,13.735h28.686s-3.015-8.71,0-13.735Z" transform="translate(-70.699 -83.641)" fill="#fff"/>
      </g>
    </g>
    <g id="Group_269" data-name="Group 269" transform="translate(225.307 222.428)">
      <g id="Group_268" data-name="Group 268" clip-path="url(#clip-path-9)">
        <g id="Group_267" data-name="Group 267" transform="translate(-0.337 -0.336)" opacity="0.24">
          <g id="Group_266" data-name="Group 266">
            <g id="Group_265" data-name="Group 265" clip-path="url(#clip-path-10)">
              <path id="Path_690" data-name="Path 690" d="M217.342,256.069a26.513,26.513,0,0,0,0,13.735h28.686s-3.015-8.71,0-13.735Z" transform="translate(-216.111 -255.732)"/>
              <path id="Path_691" data-name="Path 691" d="M217.342,256.069a26.513,26.513,0,0,0,0,13.735h28.686s-3.015-8.71,0-13.735Z" transform="translate(-216.111 -255.732)" fill="none" stroke="#263238" stroke-linecap="round" stroke-linejoin="round" stroke-width="1"/>
            </g>
          </g>
        </g>
      </g>
    </g>
    <g id="Group_271" data-name="Group 271" transform="translate(79.558 50)">
      <g id="Group_270" data-name="Group 270" clip-path="url(#clip-path)">
        <path id="Path_693" data-name="Path 693" d="M217.342,256.069a26.513,26.513,0,0,0,0,13.735h28.686s-3.015-8.71,0-13.735Z" transform="translate(-70.699 -83.641)" fill="none" stroke="#263238" stroke-linecap="round" stroke-linejoin="round" stroke-width="1"/>
        <path id="Path_694" data-name="Path 694" d="M133.9,267.009v-9.95a.922.922,0,0,1,.921-.921h84.642a.7.7,0,1,0,0-1.395H132.53a.921.921,0,0,0-.921.921V268.4a1.491,1.491,0,0,0,1.491,1.491h86.359a.7.7,0,1,0,0-1.395H135.387a1.491,1.491,0,0,1-1.491-1.491" transform="translate(-42.988 -83.208)" fill="#263238"/>
        <path id="Path_695" data-name="Path 695" d="M133.9,267.009v-9.95a.922.922,0,0,1,.921-.921h84.642a.7.7,0,1,0,0-1.395H132.53a.921.921,0,0,0-.921.921V268.4a1.491,1.491,0,0,0,1.491,1.491h86.359a.7.7,0,1,0,0-1.395H135.387A1.491,1.491,0,0,1,133.9,267.009Z" transform="translate(-42.988 -83.208)" fill="none" stroke="#263238" stroke-linecap="round" stroke-linejoin="round" stroke-width="1"/>
        <rect id="Rectangle_138" data-name="Rectangle 138" width="71.188" height="14.572" transform="translate(90.071 202.003)" fill="#fff"/>
        <rect id="Rectangle_139" data-name="Rectangle 139" width="71.188" height="14.572" transform="translate(90.071 202.003)" fill="none" stroke="#263238" stroke-linecap="round" stroke-linejoin="round" stroke-width="1"/>
        <line id="Line_55" data-name="Line 55" x2="12.497" transform="translate(91.258 204.81)" fill="none" stroke="#263238" stroke-linecap="round" stroke-linejoin="round" stroke-width="1"/>
        <line id="Line_56" data-name="Line 56" x2="1.704" transform="translate(107.921 208.786)" fill="none" stroke="#263238" stroke-linecap="round" stroke-linejoin="round" stroke-width="1"/>
        <line id="Line_57" data-name="Line 57" x2="14.012" transform="translate(91.069 208.786)" fill="none" stroke="#263238" stroke-linecap="round" stroke-linejoin="round" stroke-width="1"/>
        <line id="Line_58" data-name="Line 58" x2="5.767" transform="translate(91.361 212.905)" fill="none" stroke="#263238" stroke-linecap="round" stroke-linejoin="round" stroke-width="1"/>
        <path id="Path_696" data-name="Path 696" d="M218.009,300.735a26.513,26.513,0,0,0,0,13.735h28.237s-3.015-8.71,0-13.735Z" transform="translate(-70.917 -98.23)" fill="#fff"/>
      </g>
    </g>
    <g id="Group_276" data-name="Group 276" transform="translate(225.756 252.505)">
      <g id="Group_275" data-name="Group 275" clip-path="url(#clip-path-12)">
        <g id="Group_274" data-name="Group 274" transform="translate(-0.337 -0.336)" opacity="0.24">
          <g id="Group_273" data-name="Group 273">
            <g id="Group_272" data-name="Group 272" clip-path="url(#clip-path-13)">
              <path id="Path_697" data-name="Path 697" d="M218.009,300.735a26.513,26.513,0,0,0,0,13.735h28.237s-3.015-8.71,0-13.735Z" transform="translate(-216.778 -300.399)"/>
              <path id="Path_698" data-name="Path 698" d="M218.009,300.735a26.513,26.513,0,0,0,0,13.735h28.237s-3.015-8.71,0-13.735Z" transform="translate(-216.778 -300.399)" fill="none" stroke="#263238" stroke-linecap="round" stroke-linejoin="round" stroke-width="1"/>
            </g>
          </g>
        </g>
      </g>
    </g>
    <g id="Group_278" data-name="Group 278" transform="translate(79.558 50)">
      <g id="Group_277" data-name="Group 277" clip-path="url(#clip-path)">
        <path id="Path_700" data-name="Path 700" d="M218.009,300.735a26.513,26.513,0,0,0,0,13.735h28.237s-3.015-8.71,0-13.735Z" transform="translate(-70.917 -98.23)" fill="none" stroke="#263238" stroke-linecap="round" stroke-linejoin="round" stroke-width="1"/>
        <path id="Path_701" data-name="Path 701" d="M133.9,311.676v-9.95a.922.922,0,0,1,.921-.921h84.642a.7.7,0,1,0,0-1.395H132.53a.921.921,0,0,0-.921.921v12.739a1.491,1.491,0,0,0,1.491,1.491h86.359a.7.7,0,1,0,0-1.395H135.387a1.491,1.491,0,0,1-1.491-1.491" transform="translate(-42.988 -97.798)" fill="#263238"/>
        <path id="Path_702" data-name="Path 702" d="M133.9,311.676v-9.95a.922.922,0,0,1,.921-.921h84.642a.7.7,0,1,0,0-1.395H132.53a.921.921,0,0,0-.921.921v12.739a1.491,1.491,0,0,0,1.491,1.491h86.359a.7.7,0,1,0,0-1.395H135.387A1.491,1.491,0,0,1,133.9,311.676Z" transform="translate(-42.988 -97.798)" fill="none" stroke="#263238" stroke-linecap="round" stroke-linejoin="round" stroke-width="1"/>
        <path id="Path_703" data-name="Path 703" d="M135.108,335.929c.5-1.673,2.33-8.589.066-13.018h81.92v13.018Z" transform="translate(-44.131 -105.473)" fill="#fff"/>
        <path id="Path_704" data-name="Path 704" d="M135.108,335.929c.5-1.673,2.33-8.589.066-13.018h81.92v13.018Z" transform="translate(-44.131 -105.473)" fill="none" stroke="#263238" stroke-linecap="round" stroke-linejoin="round" stroke-width="1"/>
        <line id="Line_59" data-name="Line 59" x1="12.497" transform="translate(127.39 220.316)" fill="none" stroke="#263238" stroke-linecap="round" stroke-linejoin="round" stroke-width="1"/>
        <line id="Line_60" data-name="Line 60" x1="1.704" transform="translate(121.52 224.293)" fill="none" stroke="#263238" stroke-linecap="round" stroke-linejoin="round" stroke-width="1"/>
        <line id="Line_61" data-name="Line 61" x1="14.012" transform="translate(126.065 224.293)" fill="none" stroke="#263238" stroke-linecap="round" stroke-linejoin="round" stroke-width="1"/>
        <line id="Line_62" data-name="Line 62" x1="5.767" transform="translate(134.018 228.412)" fill="none" stroke="#263238" stroke-linecap="round" stroke-linejoin="round" stroke-width="1"/>
        <path id="Path_705" data-name="Path 705" d="M183.337,334.342v-9.95a.921.921,0,0,0-.921-.921H132.306a.7.7,0,1,1,0-1.395h86.929a.921.921,0,0,1,.921.921v12.739a1.491,1.491,0,0,1-1.491,1.491H132.306a.7.7,0,1,1,0-1.395h49.541a1.491,1.491,0,0,0,1.491-1.491" transform="translate(-42.988 -105.201)" fill="#263238"/>
        <path id="Path_706" data-name="Path 706" d="M183.337,334.342v-9.95a.921.921,0,0,0-.921-.921H132.306a.7.7,0,1,1,0-1.395h86.929a.921.921,0,0,1,.921.921v12.739a1.491,1.491,0,0,1-1.491,1.491H132.306a.7.7,0,1,1,0-1.395h49.541A1.491,1.491,0,0,0,183.337,334.342Z" transform="translate(-42.988 -105.201)" fill="none" stroke="#263238" stroke-linecap="round" stroke-linejoin="round" stroke-width="1"/>
        <path id="Path_707" data-name="Path 707" d="M135.108,358.6c.5-1.673,2.33-8.589.066-13.018h81.92V358.6Z" transform="translate(-44.131 -112.877)" fill="#fff"/>
        <path id="Path_708" data-name="Path 708" d="M135.108,358.6c.5-1.673,2.33-8.589.066-13.018h81.92V358.6Z" transform="translate(-44.131 -112.877)" fill="none" stroke="#263238" stroke-linecap="round" stroke-linejoin="round" stroke-width="1"/>
        <line id="Line_63" data-name="Line 63" x1="12.497" transform="translate(127.351 235.673)" fill="none" stroke="#263238" stroke-linecap="round" stroke-linejoin="round" stroke-width="1"/>
        <line id="Line_64" data-name="Line 64" x1="1.704" transform="translate(121.481 239.649)" fill="none" stroke="#263238" stroke-linecap="round" stroke-linejoin="round" stroke-width="1"/>
        <line id="Line_65" data-name="Line 65" x1="14.012" transform="translate(126.026 239.649)" fill="none" stroke="#263238" stroke-linecap="round" stroke-linejoin="round" stroke-width="1"/>
        <line id="Line_66" data-name="Line 66" x1="5.767" transform="translate(133.979 243.768)" fill="none" stroke="#263238" stroke-linecap="round" stroke-linejoin="round" stroke-width="1"/>
        <path id="Path_709" data-name="Path 709" d="M183.337,357.009v-9.95a.922.922,0,0,0-.921-.921H132.306a.7.7,0,1,1,0-1.395h86.929a.921.921,0,0,1,.921.921V358.4a1.491,1.491,0,0,1-1.491,1.491H132.306a.7.7,0,1,1,0-1.395h49.541a1.491,1.491,0,0,0,1.491-1.491" transform="translate(-42.988 -112.605)" fill="#fba55f"/>
        <path id="Path_710" data-name="Path 710" d="M183.337,357.009v-9.95a.922.922,0,0,0-.921-.921H132.306a.7.7,0,1,1,0-1.395h86.929a.921.921,0,0,1,.921.921V358.4a1.491,1.491,0,0,1-1.491,1.491H132.306a.7.7,0,1,1,0-1.395h49.541A1.491,1.491,0,0,0,183.337,357.009Z" transform="translate(-42.988 -112.605)" fill="none" stroke="#263238" stroke-linecap="round" stroke-linejoin="round" stroke-width="1"/>
        <path id="Path_711" data-name="Path 711" d="M135.108,290.6c.5-1.673,2.33-8.589.066-13.018h81.92V290.6Z" transform="translate(-44.131 -90.666)" fill="#fff"/>
        <path id="Path_712" data-name="Path 712" d="M135.108,290.6c.5-1.673,2.33-8.589.066-13.018h81.92V290.6Z" transform="translate(-44.131 -90.666)" fill="none" stroke="#263238" stroke-linecap="round" stroke-linejoin="round" stroke-width="1"/>
        <line id="Line_67" data-name="Line 67" x1="12.497" transform="translate(127.569 189.826)" fill="none" stroke="#263238" stroke-linecap="round" stroke-linejoin="round" stroke-width="1"/>
        <line id="Line_68" data-name="Line 68" x1="1.704" transform="translate(121.699 193.803)" fill="none" stroke="#263238" stroke-linecap="round" stroke-linejoin="round" stroke-width="1"/>
        <line id="Line_69" data-name="Line 69" x1="14.012" transform="translate(126.243 193.803)" fill="none" stroke="#263238" stroke-linecap="round" stroke-linejoin="round" stroke-width="1"/>
        <line id="Line_70" data-name="Line 70" x1="5.767" transform="translate(134.196 197.922)" fill="none" stroke="#263238" stroke-linecap="round" stroke-linejoin="round" stroke-width="1"/>
        <path id="Path_713" data-name="Path 713" d="M183.337,289.009v-9.95a.922.922,0,0,0-.921-.921H132.306a.7.7,0,1,1,0-1.395h86.929a.921.921,0,0,1,.921.921V290.4a1.491,1.491,0,0,1-1.491,1.491H132.306a.7.7,0,1,1,0-1.395h49.541a1.491,1.491,0,0,0,1.491-1.491" transform="translate(-42.988 -90.394)" fill="#fba55f"/>
        <path id="Path_714" data-name="Path 714" d="M183.337,289.009v-9.95a.922.922,0,0,0-.921-.921H132.306a.7.7,0,1,1,0-1.395h86.929a.921.921,0,0,1,.921.921V290.4a1.491,1.491,0,0,1-1.491,1.491H132.306a.7.7,0,1,1,0-1.395h49.541A1.491,1.491,0,0,0,183.337,289.009Z" transform="translate(-42.988 -90.394)" fill="none" stroke="#263238" stroke-linecap="round" stroke-linejoin="round" stroke-width="1"/>
        <path id="Path_715" data-name="Path 715" d="M161.777,205.338a69.92,69.92,0,0,1-17.058-2.244c-10.1-2.469-18.406-.673-19.977,8.978s24.241,19.528,42.2,23.119,35.913,5.163,44.666,1.347,8.53-17.508,5.163-23.792-14.59-7.183-20.426-6.285-34.566-1.122-34.566-1.122" transform="translate(-40.722 -66.011)" fill="#263238"/>
        <path id="Path_716" data-name="Path 716" d="M161.777,205.338a69.92,69.92,0,0,1-17.058-2.244c-10.1-2.469-18.406-.673-19.977,8.978s24.241,19.528,42.2,23.119,35.913,5.163,44.666,1.347,8.53-17.508,5.163-23.792-14.59-7.183-20.426-6.285S161.777,205.338,161.777,205.338Z" transform="translate(-40.722 -66.011)" fill="none" stroke="#263238" stroke-linecap="round" stroke-linejoin="round" stroke-width="1"/>
        <path id="Path_717" data-name="Path 717" d="M227.22,118.51q-1.446-9.7-2.886-19.4c-.9-6.006-1.273-12.437-2.838-18.3-2.02-8.754-5.05-13.467-14.141-15.151s-19.191,8.08-19.191,12.457,3.123,14.258-1.683,29.8c-1.644,5.315,4.712,6.068,12.4,3.716Z" transform="translate(-60.826 -21.381)" fill="#263238"/>
        <path id="Path_718" data-name="Path 718" d="M227.22,118.51q-1.446-9.7-2.886-19.4c-.9-6.006-1.273-12.437-2.838-18.3-2.02-8.754-5.05-13.467-14.141-15.151s-19.191,8.08-19.191,12.457,3.123,14.258-1.683,29.8c-1.644,5.315,4.712,6.068,12.4,3.716Z" transform="translate(-60.826 -21.381)" fill="none" stroke="#263238" stroke-linecap="round" stroke-linejoin="round" stroke-width="1"/>
        <path id="Path_719" data-name="Path 719" d="M190.885,124.227s-11.111,1.515-16.329,2.862-7.1,3.262-8.951,6.8-4.672,16.792-7.365,22.348-7.588,7.049-8.43,12.941,3.872,7.912,7.407,8.585a63.3,63.3,0,0,0,7.912.842s5.724,13.467,16.834,14.477,19.359-6.734,24.41-9.6,5.387-9.427,5.555-17,4.643-24.608,3.464-29.321-2.941-5.49-10.587-9.412c-3.272-1.677-9.206-3.858-13.92-3.521" transform="translate(-48.901 -40.565)" fill="#fba55f"/>
        <path id="Path_720" data-name="Path 720" d="M190.885,124.227s-11.111,1.515-16.329,2.862-7.1,3.262-8.951,6.8-4.672,16.792-7.365,22.348-7.588,7.049-8.43,12.941,3.872,7.912,7.407,8.585a63.3,63.3,0,0,0,7.912.842s5.724,13.467,16.834,14.477,19.359-6.734,24.41-9.6,5.387-9.427,5.555-17,4.643-24.608,3.464-29.321-2.941-5.49-10.587-9.412C201.533,126.071,195.6,123.89,190.885,124.227Z" transform="translate(-48.901 -40.565)" fill="none" stroke="#263238" stroke-linecap="round" stroke-linejoin="round" stroke-width="1"/>
        <path id="Path_721" data-name="Path 721" d="M155.96,176.933c-2.565,3.076-5.512,5.019-6.146,9.468a8.227,8.227,0,0,0,.029,2.67,5.849,5.849,0,0,0,6.907,2.319c5.145-1.47,4.594-8.636,1.47-13.046a3.175,3.175,0,0,0-2.26-1.411" transform="translate(-48.903 -57.792)" fill="#fff"/>
        <path id="Path_722" data-name="Path 722" d="M155.96,176.933c-2.565,3.076-5.512,5.019-6.146,9.468a8.227,8.227,0,0,0,.029,2.67,5.849,5.849,0,0,0,6.907,2.319c5.145-1.47,4.594-8.636,1.47-13.046A3.175,3.175,0,0,0,155.96,176.933Z" transform="translate(-48.903 -57.792)" fill="none" stroke="#263238" stroke-linecap="round" stroke-linejoin="round" stroke-width="1"/>
        <path id="Path_723" data-name="Path 723" d="M205.063,146.963c4.706-2.157,7.255-5.882,9.412-12.941a67.652,67.652,0,0,0,1.918-7.766c-3.2-1.226-7.18-2.27-10.544-2.03,0,0-4.8.655-9.569,1.485-.4,2.476-1.35,9.532-.236,14.78,1.372,6.47,4.313,8.627,9.018,6.47" transform="translate(-63.864 -40.565)" fill="#fff"/>
        <path id="Path_724" data-name="Path 724" d="M205.063,146.963c4.706-2.157,7.255-5.882,9.412-12.941a67.652,67.652,0,0,0,1.918-7.766c-3.2-1.226-7.18-2.27-10.544-2.03,0,0-4.8.655-9.569,1.485-.4,2.476-1.35,9.532-.236,14.78C197.416,146.963,200.357,149.12,205.063,146.963Z" transform="translate(-63.864 -40.565)" fill="none" stroke="#263238" stroke-linecap="round" stroke-linejoin="round" stroke-width="1"/>
        <path id="Path_725" data-name="Path 725" d="M176.608,173.256s3.367-8.417,3.367-10.774-1.515-4.714-2.693-7.744,1.852-8.08,1.852-8.08,1.91-14.636,3.674-17.185" transform="translate(-57.686 -42.29)" fill="none" stroke="#263238" stroke-linecap="round" stroke-linejoin="round" stroke-width="1"/>
        <path id="Path_726" data-name="Path 726" d="M152.858,168.687l2.525-2.693a27.256,27.256,0,0,0,5.219,2.188c6.823,2.272,9.932,3.7,10.269,7.744,0,0,4.545-2.862,9.09-2.357s8.585,2.357,9.932,2.525l1.347.168.337,2.357-2.525,13.3-19.7-2.02-13.467-11.784Z" transform="translate(-49.928 -54.219)" fill="#fff"/>
        <path id="Path_727" data-name="Path 727" d="M152.858,168.687l2.525-2.693a27.256,27.256,0,0,0,5.219,2.188c6.823,2.272,9.932,3.7,10.269,7.744,0,0,4.545-2.862,9.09-2.357s8.585,2.357,9.932,2.525l1.347.168.337,2.357-2.525,13.3-19.7-2.02-13.467-11.784Z" transform="translate(-49.928 -54.219)" fill="none" stroke="#263238" stroke-linecap="round" stroke-linejoin="round" stroke-width="1"/>
        <path id="Path_728" data-name="Path 728" d="M151.608,169.244,167.6,182.88l1.683-2.693,22.894-.505L190.832,194.5l-21.716-1.01L167.6,194.5l-11.784-8.754Z" transform="translate(-49.52 -55.281)" fill="#263238"/>
        <path id="Path_729" data-name="Path 729" d="M151.608,169.244,167.6,182.88l1.683-2.693,22.894-.505L190.832,194.5l-21.716-1.01L167.6,194.5l-11.784-8.754Z" transform="translate(-49.52 -55.281)" fill="none" stroke="#263238" stroke-linecap="round" stroke-linejoin="round" stroke-width="1"/>
        <path id="Path_730" data-name="Path 730" d="M212.856,153.267l-.337,19.191s-9.932,5.555-15.487,7.07a36.563,36.563,0,0,1-9.427,1.515c-.505,0-2.693-3.535-3.872-4.714s-2.129-1.2-4.285-2.275c-3-1.5-4.3-1.765-4.132-1.092s.337,1.347,1.852,2.188,2.525,1.515,2.525,1.515l.337.673s-3.7-.505-5.219-.842-5.387-3.03-5.387-3.03-1.648-.1-.469,1.919,2.321,2.121,2.321,2.121a6.113,6.113,0,0,0,1.683,3.2,25.367,25.367,0,0,0,2.357,1.852s-3.2-.842-2.862,0,2.357,1.178,4.882,2.357,8.249,1.347,11.447,1.852a80.409,80.409,0,0,0,17.508.337c6.734-.673,16.834-5.219,18.686-6.734s.673-18.518.168-22.389-1.515-11.111-2.188-14.477-3.367-8.08-5.05-9.09-4.714,2.188-5.05,18.854" transform="translate(-55.048 -43.849)" fill="#fff"/>
        <path id="Path_731" data-name="Path 731" d="M212.856,153.267l-.337,19.191s-9.932,5.555-15.487,7.07a36.563,36.563,0,0,1-9.427,1.515c-.505,0-2.693-3.535-3.872-4.714s-2.129-1.2-4.285-2.275c-3-1.5-4.3-1.765-4.132-1.092s.337,1.347,1.852,2.188,2.525,1.515,2.525,1.515l.337.673s-3.7-.505-5.219-.842-5.387-3.03-5.387-3.03-1.648-.1-.469,1.919,2.321,2.121,2.321,2.121a6.113,6.113,0,0,0,1.683,3.2,25.367,25.367,0,0,0,2.357,1.852s-3.2-.842-2.862,0,2.357,1.178,4.882,2.357,8.249,1.347,11.447,1.852a80.409,80.409,0,0,0,17.508.337c6.734-.673,16.834-5.219,18.686-6.734s.673-18.518.168-22.389-1.515-11.111-2.188-14.477-3.367-8.08-5.05-9.09S213.193,136.6,212.856,153.267Z" transform="translate(-55.048 -43.849)" fill="none" stroke="#263238" stroke-linecap="round" stroke-linejoin="round" stroke-width="1"/>
        <path id="Path_732" data-name="Path 732" d="M172.608,198.494a30.558,30.558,0,0,0,7.006,3.042" transform="translate(-56.379 -64.835)" fill="#fff"/>
        <path id="Path_733" data-name="Path 733" d="M172.608,198.494a30.558,30.558,0,0,0,7.006,3.042" transform="translate(-56.379 -64.835)" fill="none" stroke="#263238" stroke-linecap="round" stroke-linejoin="round" stroke-width="1"/>
        <path id="Path_734" data-name="Path 734" d="M178.608,205.994a13.134,13.134,0,0,0,3.965.824" transform="translate(-58.339 -67.284)" fill="#fff"/>
        <path id="Path_735" data-name="Path 735" d="M178.608,205.994a13.134,13.134,0,0,0,3.965.824" transform="translate(-58.339 -67.284)" fill="none" stroke="#263238" stroke-linecap="round" stroke-linejoin="round" stroke-width="1"/>
        <path id="Path_736" data-name="Path 736" d="M173.366,201.033a20.48,20.48,0,0,0,7,3.165" transform="translate(-56.627 -65.664)" fill="#fff"/>
        <path id="Path_737" data-name="Path 737" d="M173.366,201.033a20.48,20.48,0,0,0,7,3.165" transform="translate(-56.627 -65.664)" fill="none" stroke="#263238" stroke-linecap="round" stroke-linejoin="round" stroke-width="1"/>
        <path id="Path_738" data-name="Path 738" d="M225.7,186.81c6.577-1.22,15-5.07,16.678-6.441,1.852-1.515.673-18.518.168-22.389s-1.515-11.111-2.188-14.477-3.367-8.08-5.05-9.09-4.714,2.188-5.05,18.854l-.337,19.191s-3.86,2.159-8.114,4.152c1.642,1.784,4.409,5.55,3.893,10.2" transform="translate(-72.45 -43.849)" fill="#fba55f"/>
        <path id="Path_739" data-name="Path 739" d="M225.7,186.81c6.577-1.22,15-5.07,16.678-6.441,1.852-1.515.673-18.518.168-22.389s-1.515-11.111-2.188-14.477-3.367-8.08-5.05-9.09-4.714,2.188-5.05,18.854l-.337,19.191s-3.86,2.159-8.114,4.152C223.451,178.394,226.218,182.159,225.7,186.81Z" transform="translate(-72.45 -43.849)" fill="none" stroke="#263238" stroke-linecap="round" stroke-linejoin="round" stroke-width="1"/>
        <path id="Path_740" data-name="Path 740" d="M201.179,121.13a129.618,129.618,0,0,0-1.656,14.148c-.151,5.419,3.914,10.836,9.632,3.913s4.817-18.362,4.817-18.362a15.924,15.924,0,0,1-12.793.3" transform="translate(-65.169 -39.467)" fill="#fff"/>
        <path id="Path_741" data-name="Path 741" d="M201.179,121.13a129.618,129.618,0,0,0-1.656,14.148c-.151,5.419,3.914,10.836,9.632,3.913s4.817-18.362,4.817-18.362A15.924,15.924,0,0,1,201.179,121.13Z" transform="translate(-65.169 -39.467)" fill="none" stroke="#263238" stroke-linecap="round" stroke-linejoin="round" stroke-width="1"/>
        <path id="Path_742" data-name="Path 742" d="M202.581,126.864a40.681,40.681,0,0,1-.151,7.225" transform="translate(-66.12 -41.438)" fill="none" stroke="#263238" stroke-linecap="round" stroke-linejoin="round" stroke-width="1"/>
        <path id="Path_743" data-name="Path 743" d="M152.215,188.176a2.9,2.9,0,0,0,.257,2.306c.683,1.111,4.271,3.247,4.271,2.392s-1.794-2.05-1.879-2.648a5.136,5.136,0,0,0-.6-1.452s-1.281-1.624-2.05-.6" transform="translate(-49.675 -61.354)" fill="#fff"/>
        <path id="Path_744" data-name="Path 744" d="M152.215,188.176a2.9,2.9,0,0,0,.257,2.306c.683,1.111,4.271,3.247,4.271,2.392s-1.794-2.05-1.879-2.648a5.136,5.136,0,0,0-.6-1.452S152.984,187.151,152.215,188.176Z" transform="translate(-49.675 -61.354)" fill="none" stroke="#263238" stroke-linecap="round" stroke-linejoin="round" stroke-width="1"/>
        <path id="Path_745" data-name="Path 745" d="M149.707,180.927a12.441,12.441,0,0,0,.259,3.664c.426,1.169,4.928,4.276,6.085,3.681s-2.4-3.685-3.242-4.653a29.375,29.375,0,0,0-3.1-2.692" transform="translate(-48.889 -59.097)" fill="#fff"/>
        <path id="Path_746" data-name="Path 746" d="M149.707,180.927a12.441,12.441,0,0,0,.259,3.664c.426,1.169,4.928,4.276,6.085,3.681s-2.4-3.685-3.242-4.653A29.375,29.375,0,0,0,149.707,180.927Z" transform="translate(-48.889 -59.097)" fill="none" stroke="#263238" stroke-linecap="round" stroke-linejoin="round" stroke-width="1"/>
        <path id="Path_747" data-name="Path 747" d="M149.668,176.416a12.46,12.46,0,0,0,0,3.673c.342,1.2,4.613,4.614,5.809,4.1s-2.135-3.844-2.9-4.869a29.384,29.384,0,0,0-2.9-2.9" transform="translate(-48.837 -57.623)" fill="#fff"/>
        <path id="Path_748" data-name="Path 748" d="M149.668,176.416a12.46,12.46,0,0,0,0,3.673c.342,1.2,4.613,4.614,5.809,4.1s-2.135-3.844-2.9-4.869A29.384,29.384,0,0,0,149.668,176.416Z" transform="translate(-48.837 -57.623)" fill="none" stroke="#263238" stroke-linecap="round" stroke-linejoin="round" stroke-width="1"/>
        <path id="Path_749" data-name="Path 749" d="M151.308,171.978s-2.563-1.367-2.99.341,1.538,3.5,3.332,4.955,2.564,1.2,2.564-.171-2.9-5.126-2.9-5.126" transform="translate(-48.426 -56.005)" fill="#fff"/>
        <path id="Path_750" data-name="Path 750" d="M151.308,171.978s-2.563-1.367-2.99.341,1.538,3.5,3.332,4.955,2.564,1.2,2.564-.171S151.308,171.978,151.308,171.978Z" transform="translate(-48.426 -56.005)" fill="none" stroke="#263238" stroke-linecap="round" stroke-linejoin="round" stroke-width="1"/>
        <path id="Path_751" data-name="Path 751" d="M143.217,247.909s-3.367,1.8-9.651,2.02-11.447-3.143-8.53-5.836a14.186,14.186,0,0,1,11.447-3.591c4.04.673,10.1,2.244,10.1,2.244Z" transform="translate(-40.568 -78.505)" fill="#fff"/>
        <path id="Path_752" data-name="Path 752" d="M143.217,247.909s-3.367,1.8-9.651,2.02-11.447-3.143-8.53-5.836a14.186,14.186,0,0,1,11.447-3.591c4.04.673,10.1,2.244,10.1,2.244Z" transform="translate(-40.568 -78.505)" fill="none" stroke="#263238" stroke-linecap="round" stroke-linejoin="round" stroke-width="1"/>
        <path id="Path_753" data-name="Path 753" d="M144.115,242.3c.306.036.626.055.952.067-2.059-.508-5.8-1.4-8.583-1.863a14.186,14.186,0,0,0-11.447,3.592c-1.487,1.372-.873,2.918.914,4.076a4.318,4.318,0,0,1,2.677-4.525c3.816-1.8,11.671-1.8,15.487-1.347" transform="translate(-40.568 -78.505)" fill="#fff"/>
        <path id="Path_754" data-name="Path 754" d="M144.115,242.3c.306.036.626.055.952.067-2.059-.508-5.8-1.4-8.583-1.863a14.186,14.186,0,0,0-11.447,3.592c-1.487,1.372-.873,2.918.914,4.076a4.318,4.318,0,0,1,2.677-4.525C132.443,241.848,140.3,241.848,144.115,242.3Z" transform="translate(-40.568 -78.505)" fill="none" stroke="#263238" stroke-linecap="round" stroke-linejoin="round" stroke-width="1"/>
        <path id="Path_755" data-name="Path 755" d="M222.7,217.635s-6.734,10.1-13.467,14.141-37.484,4.489-43.769,4.489H152.442v-4.714s20.649-2.918,32.1-9.427,17.508-13.692,26.486-16.61,16.834,2.02,16.609,14.141" transform="translate(-49.793 -66.861)" fill="#263238"/>
        <path id="Path_756" data-name="Path 756" d="M222.7,217.635s-6.734,10.1-13.467,14.141-37.484,4.489-43.769,4.489H152.442v-4.714s20.649-2.918,32.1-9.427,17.508-13.692,26.486-16.61,16.834,2.02,16.609,14.141" transform="translate(-49.793 -66.861)" fill="none" stroke="#263238" stroke-linecap="round" stroke-linejoin="round" stroke-width="1"/>
        <path id="Path_757" data-name="Path 757" d="M240.531,235.388A38.269,38.269,0,0,1,220.9,245.1" transform="translate(-72.153 -76.886)" fill="none" stroke="#fff" stroke-linecap="round" stroke-linejoin="round" stroke-width="1"/>
        <path id="Path_758" data-name="Path 758" d="M255.69,227.244a17.209,17.209,0,0,1-1.892,2.77" transform="translate(-82.899 -74.225)" fill="none" stroke="#fff" stroke-linecap="round" stroke-linejoin="round" stroke-width="1"/>
        <path id="Path_759" data-name="Path 759" d="M200.882,228.744a19.729,19.729,0,0,1-10.774,4.04" transform="translate(-62.096 -74.715)" fill="none" stroke="#fff" stroke-linecap="round" stroke-linejoin="round" stroke-width="1"/>
        <path id="Path_760" data-name="Path 760" d="M146.182,209.648c-.245-.027-.492-.051-.741-.071" transform="translate(-47.506 -68.455)" fill="#263238"/>
        <path id="Path_761" data-name="Path 761" d="M146.182,209.648c-.245-.027-.492-.051-.741-.071" transform="translate(-47.506 -68.455)" fill="none" stroke="#263238" stroke-linecap="round" stroke-linejoin="round" stroke-width="1"/>
        <path id="Path_762" data-name="Path 762" d="M240.224,251.488a62.838,62.838,0,0,1,10.325-2.693c4.714-.673,8.53,0,9.876,2.918s.449,6.509-4.264,7.407-13.243-.9-14.141-.9a6.614,6.614,0,0,1-2.245-.673Z" transform="translate(-78.318 -81.186)" fill="#fff"/>
        <path id="Path_763" data-name="Path 763" d="M240.224,251.488a62.838,62.838,0,0,1,10.325-2.693c4.714-.673,8.53,0,9.876,2.918s.449,6.509-4.264,7.407-13.243-.9-14.141-.9a6.614,6.614,0,0,1-2.245-.673Z" transform="translate(-78.318 -81.186)" fill="none" stroke="#263238" stroke-linecap="round" stroke-linejoin="round" stroke-width="1"/>
        <path id="Path_764" data-name="Path 764" d="M258.831,248.645c1.434.552,4.141,2.071,3.642,5.566-.673,4.714-6.285,4.714-10.1,4.714a3.142,3.142,0,0,0-.832.117,30.906,30.906,0,0,0,8.464.108c4.714-.9,5.611-4.489,4.264-7.407-.888-1.924-2.853-2.867-5.437-3.1" transform="translate(-82.161 -81.216)" fill="#fff"/>
        <path id="Path_765" data-name="Path 765" d="M258.831,248.645c1.434.552,4.141,2.071,3.642,5.566-.673,4.714-6.285,4.714-10.1,4.714a3.142,3.142,0,0,0-.832.117,30.906,30.906,0,0,0,8.464.108c4.714-.9,5.611-4.489,4.264-7.407C263.38,249.818,261.415,248.875,258.831,248.645Z" transform="translate(-82.161 -81.216)" fill="none" stroke="#263238" stroke-linecap="round" stroke-linejoin="round" stroke-width="1"/>
        <path id="Path_766" data-name="Path 766" d="M135.025,202.132s-7.631-1.347-12.57,2.469-4.264,7.855.449,13.692,16.834,16.161,43.1,20.874,34.342,3.143,34.342,3.143l.449-6.06a53.406,53.406,0,0,1-31.424-10.1c-14.7-10.749-21.248-17.854-31.805-19.008" transform="translate(-38.885 -65.948)" fill="#263238"/>
        <path id="Path_767" data-name="Path 767" d="M135.025,202.132s-7.631-1.347-12.57,2.469-4.264,7.855.449,13.692,16.834,16.161,43.1,20.874,34.342,3.143,34.342,3.143l.449-6.06a53.406,53.406,0,0,1-31.424-10.1c-14.7-10.749-21.248-17.854-31.805-19.008" transform="translate(-38.885 -65.948)" fill="none" stroke="#263238" stroke-linecap="round" stroke-linejoin="round" stroke-width="1"/>
        <path id="Path_768" data-name="Path 768" d="M141.018,209.819a19.032,19.032,0,0,0-2.409.286" transform="translate(-45.274 -68.534)" fill="none" stroke="#fff" stroke-linecap="round" stroke-linejoin="round" stroke-width="1"/>
        <path id="Path_769" data-name="Path 769" d="M207.209,238.875s-15.487-.337-32.995-13.8c-12.374-9.518-19.7-13.655-25.551-14.786" transform="translate(-48.558 -68.686)" fill="none" stroke="#fff" stroke-linecap="round" stroke-linejoin="round" stroke-width="1"/>
        <path id="Path_770" data-name="Path 770" d="M222.107,98.351c-4.135,2.178-4.693-2.194-4.68-4.833a.247.247,0,0,0,.082-.117c.3-1.21,0-7.26-3.479-9.68-3.067-2.134-7.137-3.975-10.933-3.98a8.066,8.066,0,0,0-6.484,3.868c-1.708,2.579-1.562,5.569-1.7,8.549-.141,3.012-.424,6.261.172,9.241.795,3.974,4.5,12.319,9.008,12.319,4.089,0,11.345-6.116,13.836-9.72a4.3,4.3,0,0,0,1.531-.877c.927-.795,2.782-2.12,2.649-4.769" transform="translate(-63.602 -26.046)" fill="#fff"/>
        <path id="Path_771" data-name="Path 771" d="M222.107,98.351c-4.135,2.178-4.693-2.194-4.68-4.833a.247.247,0,0,0,.082-.117c.3-1.21,0-7.26-3.479-9.68-3.067-2.134-7.137-3.975-10.933-3.98a8.066,8.066,0,0,0-6.484,3.868c-1.708,2.579-1.562,5.569-1.7,8.549-.141,3.012-.424,6.261.172,9.241.795,3.974,4.5,12.319,9.008,12.319,4.089,0,11.345-6.116,13.836-9.72a4.3,4.3,0,0,0,1.531-.877C220.385,102.325,222.24,101,222.107,98.351Z" transform="translate(-63.602 -26.046)" fill="none" stroke="#263238" stroke-linecap="round" stroke-linejoin="round" stroke-width="1"/>
        <path id="Path_772" data-name="Path 772" d="M207.8,103.445s-1.854,5.7-1.722,6.359,2.384,0,2.384,0" transform="translate(-67.309 -33.789)" fill="none" stroke="#263238" stroke-linecap="round" stroke-linejoin="round" stroke-width="1"/>
        <path id="Path_773" data-name="Path 773" d="M206.08,115.914s2.45,1.844,6.359-1.06" transform="translate(-67.313 -37.515)" fill="none" stroke="#263238" stroke-linecap="round" stroke-linejoin="round" stroke-width="1"/>
        <path id="Path_774" data-name="Path 774" d="M214.933,106.395s1.325,2.782,5.563,1.193" transform="translate(-70.204 -34.752)" fill="none" stroke="#263238" stroke-linecap="round" stroke-linejoin="round" stroke-width="1"/>
        <path id="Path_775" data-name="Path 775" d="M197.031,101.477s.795,2.782,5.033,1.722" transform="translate(-64.357 -33.146)" fill="none" stroke="#263238" stroke-linecap="round" stroke-linejoin="round" stroke-width="1"/>
        <path id="Path_776" data-name="Path 776" d="M205.054,96.671s-1.5-5.405-6.449-2.654" transform="translate(-64.871 -30.454)" fill="none" stroke="#263238" stroke-linecap="round" stroke-linejoin="round" stroke-width="1"/>
        <circle id="Ellipse_17" data-name="Ellipse 17" cx="5.299" cy="5.299" r="5.299" transform="matrix(0.987, -0.16, 0.16, 0.987, 140.901, 67.659)" fill="none" stroke="#263238" stroke-linecap="round" stroke-linejoin="round" stroke-width="1"/>
        <circle id="Ellipse_18" data-name="Ellipse 18" cx="5.299" cy="5.299" r="5.299" transform="translate(129.495 64.357)" fill="none" stroke="#263238" stroke-linecap="round" stroke-linejoin="round" stroke-width="1"/>
        <line id="Line_71" data-name="Line 71" y1="0.795" x2="4.372" transform="translate(152.014 72.306)" fill="none" stroke="#263238" stroke-linecap="round" stroke-linejoin="round" stroke-width="1"/>
        <line id="Line_72" data-name="Line 72" y1="1.193" x2="1.59" transform="translate(129.627 67.139)" fill="none" stroke="#263238" stroke-linecap="round" stroke-linejoin="round" stroke-width="1"/>
        <path id="Path_777" data-name="Path 777" d="M200.261,79.414s4.689-2.874,6.353-.152,9.2,20.792,17.3,16.749-.061-17.353-7.926-21.589-14.52-.6-15.731,4.992" transform="translate(-65.412 -23.705)" fill="#263238"/>
        <path id="Path_778" data-name="Path 778" d="M200.261,79.414s4.689-2.874,6.353-.152,9.2,20.792,17.3,16.749-.061-17.353-7.926-21.589S201.471,73.817,200.261,79.414Z" transform="translate(-65.412 -23.705)" fill="none" stroke="#263238" stroke-linecap="round" stroke-linejoin="round" stroke-width="1"/>
        <path id="Path_779" data-name="Path 779" d="M204.382,79.025s-2.646-2.23-4.188-1.2a3.046,3.046,0,0,0-1.542,2.313" transform="translate(-64.886 -25.331)" fill="none" stroke="#fff" stroke-linecap="round" stroke-linejoin="round" stroke-width="1"/>
        <path id="Path_780" data-name="Path 780" d="M235.818,100.326a7.1,7.1,0,0,0,1.953.867" transform="translate(-77.026 -32.77)" fill="none" stroke="#fff" stroke-linecap="round" stroke-linejoin="round" stroke-width="1"/>
        <path id="Path_781" data-name="Path 781" d="M205.52,70.676s4.625-5.139,9.764,2.826c3.372,5.227,5.306,10.455,7.835,13.867" transform="translate(-67.13 -22.552)" fill="none" stroke="#fff" stroke-linecap="round" stroke-linejoin="round" stroke-width="1"/>
        <path id="Path_782" data-name="Path 782" d="M216.76,96.923a6.067,6.067,0,0,1,6.889,1.06" transform="translate(-70.801 -31.45)" fill="none" stroke="#fff" stroke-linecap="round" stroke-linejoin="round" stroke-width="1"/>
        <path id="Path_783" data-name="Path 783" d="M206.5,173.662s5.079,6.349,13.46,6.349" transform="translate(-67.451 -56.724)" fill="none" stroke="#263238" stroke-linecap="round" stroke-linejoin="round" stroke-width="1"/>
      </g>
    </g>
    <rect id="Rectangle_143" data-name="Rectangle 143" width="270.301" height="247.627" transform="translate(79.558 50)" fill="none"/>
  </g>
</svg>
