<svg id="Iconly_Bold_Folder" data-name="Iconly/Bold/Folder" xmlns="http://www.w3.org/2000/svg" width="25" height="25" viewBox="0 0 25 25">
  <g id="Folder">
    <path id="Folder-2" data-name="Folder" d="M17.188,25H7.8C2.989,25,0,22.006,0,17.187V7.8C0,2.625,2.3,0,6.838,0H8.852a3.7,3.7,0,0,1,2.924,1.438l1.1,1.462a1.84,1.84,0,0,0,1.438.7H18.15a6.808,6.808,0,0,1,5.006,1.7C24.386,6.535,25.006,8.49,25,11.112V17.2a7.847,7.847,0,0,1-2.092,5.71A7.87,7.87,0,0,1,17.188,25ZM6.713,14.737a.928.928,0,0,0-.938.938.939.939,0,0,0,.938.937H18.288a.932.932,0,0,0,.925-.937.922.922,0,0,0-.925-.938Z" fill="#0f4c90"/>
  </g>
</svg>
