<svg id="vector" xmlns="http://www.w3.org/2000/svg" width="270.3" height="247.63" viewBox="0 0 270.3 247.63"><defs><clipPath id="clip_path_0"><path d="M0,0h270.3v247.63h-270.3z"/></clipPath><clipPath id="clip_path_1"><path d="M0,0h270.3v247.63h-270.3z"/></clipPath><clipPath id="clip_path_2"><path d="M0,0h270.3v247.63h-270.3z"/></clipPath><clipPath id="clip_path_3"><path d="M0,0h270.3v247.63h-270.3z"/></clipPath><clipPath id="clip_path_4"><path d="M146.64,172.43a26.52,26.52 0,0 0,0 13.73h28.68s-3.02,-8.71 0,-13.73Z"/></clipPath><clipPath id="clip_path_5"><path d="M0,0h270.3v247.63h-270.3z"/></clipPath><clipPath id="clip_path_6"><path d="M147.09,202.51a26.51,26.51 0,0 0,0 13.73h28.24s-3.02,-8.71 0,-13.73Z"/></clipPath><clipPath id="clip_path_7"><path d="M0,0h270.3v247.63h-270.3z"/></clipPath></defs><g id="g_0"><path fill="#115A8E" d="M240.49,37.36S224.03,5.37 187.69,0.63 125.97,19 99.23,30.84c-14.01,6.2 -30,3.8 -44.87,6.8C6.82,47.24 -11.09,107.4 8.72,141.62c17.14,29.62 47.31,45.02 93.26,48.57s78.17,7.7 119.32,-21.33 38.4,-89.45 19.2,-131.5" clip-path="url(#clip_path_0)"/></g><g id="g_1"><path fill="#00000000" d="M201.96,64.33l-7.07,29.5s2.44,3.41 3.41,4.39 3.17,0.98 3.9,0.98 28.28,0.49 28.28,0.49l5.42,-36.08" stroke-linejoin="round" stroke-width="1" stroke="#fff" stroke-linecap="round" clip-path="url(#clip_path_1)"/><path fill="#00000000" d="M207.87,58.76L205.62,58.72" stroke-linejoin="round" stroke-width="1" stroke="#fff" stroke-linecap="round"/><path fill="#00000000" d="M196.36,94.31l29.74,-0.1 6.34,-35 -21.81,-0.4" stroke-linejoin="round" stroke-width="1" stroke="#fff" stroke-linecap="round"/><path fill="#00000000" d="M198.07,94.55l2.44,2.68 28.52,0.73 5.16,-31.27 -2.24,-3.1" stroke-linejoin="round" stroke-width="1" stroke="#fff" stroke-linecap="round"/><path fill="#fff" d="M203.05,96.1h4.13s-0.69,3.27 -1.03,6.36 -0.52,7.05 -0.52,7.05l-2.41,-4.47 -2.92,3.78Z" stroke-width="1" stroke="#fff"/><path fill="#00000000" d="M29.09,102.56l17.58,-7.08s0.86,-2.48 1,-3.33a3.87,3.87 0,0 0,-0.92 -2.34c-0.26,-0.37 -9.99,-14.57 -9.99,-14.57L16.43,85.55" stroke-linejoin="round" stroke-width="1" stroke="#fff" stroke-linecap="round"/><path fill="#00000000" d="M24.12,101.57L24.91,102.73" stroke-linejoin="round" stroke-width="1" stroke="#fff" stroke-linecap="round"/><path fill="#00000000" d="M46.38,94.56l-10.82,-15.11 -20.12,9.45 7.7,11.25" stroke-linejoin="round" stroke-width="1" stroke="#fff" stroke-linecap="round"/><path fill="#00000000" d="M45.89,93.6l0.48,-2.21L36.42,76.6l-17.79,8.7 -0.77,2.26" stroke-linejoin="round" stroke-width="1" stroke="#fff" stroke-linecap="round"/><path fill="#fff" d="M44.87,90.5l-1.5,-2.1s1.91,-0.83 3.61,-1.78 3.78,-2.29 3.78,-2.29l-1.4,2.85 2.99,0.12Z" stroke-width="1" stroke="#fff"/><path fill="#00000000" d="M28.66,130.18l-1.39,0.7 12.32,23.57L60.21,132.48l25.18,-7.77L72.8,104.62l-1.11,0.09" stroke-linejoin="round" stroke-width="1" stroke="#fff" stroke-linecap="round"/><path fill="#00000000" d="M47.08,110.25l10.98,19.82s-4.82,-1.07 -5.89,3.48 -5.89,10.44 -8.03,13.12a39.49,39.49 0,0 1,-4.28 4.55l-11.78,-22.5a31.83,31.83 0,0 0,8.3 -10.98C39.05,111.32 43.34,109.45 47.08,110.25Z" stroke-linejoin="round" stroke-width="1" stroke="#fff" stroke-linecap="round"/><path fill="#00000000" d="M58.07,130.07s1.34,-4.02 4.55,-4.28 9.11,0.8 14.2,-0.8 5.89,-2.14 5.89,-2.14L70.39,102.75S67.45,105.16 59.94,105.16s-12.05,1.34 -12.85,5.09Z" stroke-linejoin="round" stroke-width="1" stroke="#fff" stroke-linecap="round"/><path fill="#00000000" d="M58.87,132.21a16.37,16.37 0,0 0,-3.75 2.41c-1.88,1.61 -3.48,4.55 -6.7,8.57" stroke-linejoin="round" stroke-width="1" stroke="#fff" stroke-linecap="round"/><path fill="#00000000" d="M61.02,130.6a7.62,7.62 0,0 1,4.82 -2.68,49.43 49.43,0 0,0 16.34,-3.48" stroke-linejoin="round" stroke-width="1" stroke="#fff" stroke-linecap="round"/><path fill="#00000000" d="M32.09,131.68a91.6,91.6 0,0 0,6.43 -8.3c3.75,-5.36 6.43,-7.5 9.38,-7.5" stroke-linejoin="round" stroke-width="1" stroke="#fff" stroke-linecap="round"/><path fill="#00000000" d="M34.23,135.16a91.49,91.49 0,0 0,6.43 -8.3c3.75,-5.36 6.43,-7.5 9.38,-7.5" stroke-linejoin="round" stroke-width="1" stroke="#fff" stroke-linecap="round"/><path fill="#00000000" d="M36.38,138.64a91.65,91.65 0,0 0,6.43 -8.3c3.75,-5.36 6.43,-7.5 9.38,-7.5" stroke-linejoin="round" stroke-width="1" stroke="#fff" stroke-linecap="round"/><path fill="#00000000" d="M38.52,142.12a91.46,91.46 0,0 0,6.43 -8.3c3.75,-5.36 6.43,-7.5 9.38,-7.5" stroke-linejoin="round" stroke-width="1" stroke="#fff" stroke-linecap="round"/><path fill="#00000000" d="M51.64,114.27s1.07,-2.95 5.09,-2.95 12.89,-0.35 13.93,-3.48" stroke-linejoin="round" stroke-width="1" stroke="#fff" stroke-linecap="round"/><path fill="#00000000" d="M54.05,118.28s1.88,-2.41 6.96,-2.41 9.64,-1.07 12.59,-4.02" stroke-linejoin="round" stroke-width="1" stroke="#fff" stroke-linecap="round"/><path fill="#00000000" d="M55.66,122.3a6.72,6.72 0,0 1,6.16 -3.48c4.55,0 10.18,-0.8 13.39,-3.21" stroke-linejoin="round" stroke-width="1" stroke="#fff" stroke-linecap="round"/><path fill="#00000000" d="M57.53,125.25s0.8,-2.68 5.36,-2.95a45.29,45.29 0,0 0,14.46 -3.21" stroke-linejoin="round" stroke-width="1" stroke="#fff" stroke-linecap="round"/><path fill="#00000000" d="M174.5,9.81l-0.7,-0.81 -13.55,12.28 18.18,9.92 9.53,15.41 11.19,-11.85 -0.25,-0.72" stroke-linejoin="round" stroke-width="1" stroke="#fff" stroke-linecap="round"/><path fill="#00000000" d="M190.95,18.61 L179.66,29.35s-0.12,-3.39 -3.34,-3.32 -7.97,-2.11 -10.12,-3.07a27.15,27.15 0,0 1,-3.77 -2.06l12.93,-11.74a21.88,21.88 0,0 0,8.74 3.62C188.84,13.45 190.83,15.98 190.95,18.61Z" stroke-linejoin="round" stroke-width="1" stroke="#fff" stroke-linecap="round"/><path fill="#00000000" d="M179.66,29.35s2.9,0.2 3.64,2.29 1.04,6.2 2.99,9.31a23.42,23.42 0,0 0,2.45 3.55l11.23,-11.68s-2.11,-1.54 -3.41,-6.53 -2.98,-7.79 -5.61,-7.67Z" stroke-linejoin="round" stroke-width="1" stroke="#fff" stroke-linecap="round"/><path fill="#00000000" d="M178.38,30.26a11.25,11.25 0,0 0,-2.25 -2.08c-1.39,-0.97 -3.63,-1.53 -6.86,-2.97" stroke-linejoin="round" stroke-width="1" stroke="#fff" stroke-linecap="round"/><path fill="#00000000" d="M179.82,31.41a5.24,5.24 0,0 1,2.62 2.74A33.99,33.99 0,0 0,187.58 44.42" stroke-linejoin="round" stroke-width="1" stroke="#fff" stroke-linecap="round"/><path fill="#00000000" d="M174.09,12.35a62.91,62.91 0,0 0,6.64 2.84c4.21,1.57 6.1,2.98 6.61,4.94" stroke-linejoin="round" stroke-width="1" stroke="#fff" stroke-linecap="round"/><path fill="#00000000" d="M172.15,14.38a62.92,62.92 0,0 0,6.64 2.84c4.21,1.57 6.1,2.98 6.61,4.94" stroke-linejoin="round" stroke-width="1" stroke="#fff" stroke-linecap="round"/><path fill="#00000000" d="M170.2,16.4A62.9,62.9 0,0 0,176.84 19.24c4.21,1.57 6.1,2.98 6.61,4.94" stroke-linejoin="round" stroke-width="1" stroke="#fff" stroke-linecap="round"/><path fill="#00000000" d="M168.26,18.43a62.91,62.91 0,0 0,6.64 2.84c4.21,1.57 6.1,2.98 6.61,4.94" stroke-linejoin="round" stroke-width="1" stroke="#fff" stroke-linecap="round"/><path fill="#00000000" d="M189.06,22.34a3.54,3.54 0,0 1,2.84 2.88c0.7,2.67 2.47,8.52 4.73,8.66" stroke-linejoin="round" stroke-width="1" stroke="#fff" stroke-linecap="round"/><path fill="#00000000" d="M186.81,24.64s1.93,0.83 2.81,4.22 2.38,6.23 4.85,7.68" stroke-linejoin="round" stroke-width="1" stroke="#fff" stroke-linecap="round"/><path fill="#00000000" d="M184.41,26.41a4.62,4.62 0,0 1,3.38 3.5c0.79,3.03 2.3,6.63 4.46,8.35" stroke-linejoin="round" stroke-width="1" stroke="#fff" stroke-linecap="round"/><path fill="#00000000" d="M182.78,28.16s1.92,0.07 2.89,3.05a31.14,31.14 0,0 0,4.64 9.07" stroke-linejoin="round" stroke-width="1" stroke="#fff" stroke-linecap="round"/><path fill="#00000000" d="M76.53,36.46 L65.28,54.09l2.43,0.61 11.25,-16.73 17.94,10.34 2.43,-2.43 -19.77,-10.34" stroke-linejoin="round" stroke-width="1" stroke="#fff" stroke-linecap="round"/><path fill="#00000000" d="M78.97,37.98l4.87,29.2 14.9,8.52 -2.13,-25.85" stroke-linejoin="round" stroke-width="1" stroke="#fff" stroke-linecap="round"/><path fill="#00000000" d="M98.74,75.69l2.43,-4.56 -1.83,-25.24" stroke-linejoin="round" stroke-width="1" stroke="#fff" stroke-linecap="round"/><path fill="#00000000" d="M83.84,67.17l-10.04,13.69 -5.17,-23.72" stroke-linejoin="round" stroke-width="1" stroke="#fff" stroke-linecap="round"/><path fill="#00000000" d="M65.28,54.09l5.78,26.46 2.74,0.3" stroke-linejoin="round" stroke-width="1" stroke="#fff" stroke-linecap="round"/><path fill="#00000000" d="M79.58,48.01L71.67,58.96" stroke-linejoin="round" stroke-width="1" stroke="#fff" stroke-linecap="round"/><path fill="#00000000" d="M80.19,53.18L72.28,64.13" stroke-linejoin="round" stroke-width="1" stroke="#fff" stroke-linecap="round"/><path fill="#00000000" d="M80.79,58.35L72.89,69.3" stroke-linejoin="round" stroke-width="1" stroke="#fff" stroke-linecap="round"/><path fill="#00000000" d="M81.4,63.52L73.5,74.47" stroke-linejoin="round" stroke-width="1" stroke="#fff" stroke-linecap="round"/><path fill="#00000000" d="M82.92,48.31L93.57,54.4" stroke-linejoin="round" stroke-width="1" stroke="#fff" stroke-linecap="round"/><path fill="#00000000" d="M82.92,53.18L93.57,59.26" stroke-linejoin="round" stroke-width="1" stroke="#fff" stroke-linecap="round"/><path fill="#00000000" d="M84.44,58.35L95.09,64.43" stroke-linejoin="round" stroke-width="1" stroke="#fff" stroke-linecap="round"/><path fill="#00000000" d="M84.75,63.52L95.39,69.6" stroke-linejoin="round" stroke-width="1" stroke="#fff" stroke-linecap="round"/><path fill="#00000000" d="M230.62,164.51l9.42,-18.68 -2.48,-0.36L228.05,163.24l-18.89,-8.48 -2.18,2.66 20.71,8.3" stroke-linejoin="round" stroke-width="1" stroke="#fff" stroke-linecap="round"/><path fill="#00000000" d="M228.05,163.24 L220.26,134.68l-15.68,-6.97 4.72,25.5" stroke-linejoin="round" stroke-width="1" stroke="#fff" stroke-linecap="round"/><path fill="#00000000" d="M204.58,127.71l-1.96,4.78 4.36,24.93" stroke-linejoin="round" stroke-width="1" stroke="#fff" stroke-linecap="round"/><path fill="#00000000" d="M220.26,134.68l8.61,-14.63 7.53,23.08" stroke-linejoin="round" stroke-width="1" stroke="#fff" stroke-linecap="round"/><path fill="#00000000" d="M240.04,145.82l-8.41,-25.74 -2.75,-0.03" stroke-linejoin="round" stroke-width="1" stroke="#fff" stroke-linecap="round"/><path fill="#00000000" d="M226.43,153.32L233.19,141.63" stroke-linejoin="round" stroke-width="1" stroke="#fff" stroke-linecap="round"/><path fill="#00000000" d="M225.3,148.23L232.07,136.54" stroke-linejoin="round" stroke-width="1" stroke="#fff" stroke-linecap="round"/><path fill="#00000000" d="M224.18,143.15L230.94,131.46" stroke-linejoin="round" stroke-width="1" stroke="#fff" stroke-linecap="round"/><path fill="#00000000" d="M223.05,138.07L229.82,126.38" stroke-linejoin="round" stroke-width="1" stroke="#fff" stroke-linecap="round"/><path fill="#00000000" d="M223.07,153.35L211.87,148.37" stroke-linejoin="round" stroke-width="1" stroke="#fff" stroke-linecap="round"/><path fill="#00000000" d="M222.58,148.51L211.38,143.53" stroke-linejoin="round" stroke-width="1" stroke="#fff" stroke-linecap="round"/><path fill="#00000000" d="M220.55,143.52L209.35,138.54" stroke-linejoin="round" stroke-width="1" stroke="#fff" stroke-linecap="round"/><path fill="#00000000" d="M219.72,138.4L208.52,133.42" stroke-linejoin="round" stroke-width="1" stroke="#fff" stroke-linecap="round"/></g><g id="g_2"><path fill="#fba55f" d="M189.77,174.21c-1.89,4.66 -3.83,0.91 -3.52,-18.64 0.14,-9.16 0.79,-27.88 10.92,-23.76 9.74,3.96 -3.09,31.64 -3.09,31.64ZM203.69,176.99s21.12,-22.01 13.2,-28.92c-8.25,-7.19 -14.94,10.31 -18.05,18.93 -6.64,18.39 -6.03,22.57 -2.72,18.77ZM208.14,196.74s19.34,-13.77 14.28,-20.2c-5.26,-6.69 -12.91,5.72 -16.54,11.86 -7.74,13.1 -7.88,16.38 -4.8,13.96ZM213.38,216.44s19.34,-13.77 14.28,-20.2c-5.26,-6.69 -12.91,5.72 -16.54,11.86 -7.74,13.1 -7.88,16.38 -4.8,13.96ZM179.6,176.84s-27.06,-14.09 -31.46,-4.54c-4.58,9.93 14.09,11.44 23.24,12 19.52,1.2 23.35,-0.56 18.78,-2.66ZM183.41,192.35s-29.32,-8.43 -31.74,1.8c-2.52,10.65 16.08,8.41 25.16,7.14 19.36,-2.7 22.77,-5.19 17.88,-6.34ZM190.12,209.25s-24.99,-6.45 -26.8,2.26c-1.88,9.06 13.8,6.74 21.44,5.46 16.31,-2.73 19.14,-4.92 14.97,-5.78ZM194.04,223.21s-24.17,-9.06 -26.89,-0.6c-2.83,8.81 13,8.16 20.74,7.7 16.51,-0.98 19.55,-2.86 15.5,-4.16ZM177.86,152.51s-11.03,-34.29 -23.56,-28.06c-13.03,6.48 2.03,21.94 9.56,29.34 16.07,15.79 21.05,16.9 18.93,11.39Z" clip-path="url(#clip_path_2)"/><g><path fill="#fff" d="M189.77,174.21c-1.89,4.66 -3.83,0.91 -3.52,-18.64 0.14,-9.16 0.79,-27.88 10.92,-23.76 9.74,3.96 -3.09,31.64 -3.09,31.64ZM203.69,176.99s21.12,-22.01 13.2,-28.92c-8.25,-7.19 -14.94,10.31 -18.05,18.93 -6.64,18.39 -6.03,22.57 -2.72,18.77ZM208.14,196.74s19.34,-13.77 14.28,-20.2c-5.26,-6.69 -12.91,5.72 -16.54,11.86 -7.74,13.1 -7.88,16.38 -4.8,13.96ZM213.38,216.44s19.34,-13.77 14.28,-20.2c-5.26,-6.69 -12.91,5.72 -16.54,11.86 -7.74,13.1 -7.88,16.38 -4.8,13.96ZM179.6,176.84s-27.06,-14.09 -31.46,-4.54c-4.58,9.93 14.09,11.44 23.24,12 19.52,1.2 23.35,-0.56 18.78,-2.66ZM183.41,192.35s-29.32,-8.43 -31.74,1.8c-2.52,10.65 16.08,8.41 25.16,7.14 19.36,-2.7 22.77,-5.19 17.88,-6.34ZM190.12,209.25s-24.99,-6.45 -26.8,2.26c-1.88,9.06 13.8,6.74 21.44,5.46 16.31,-2.73 19.14,-4.92 14.97,-5.78ZM194.04,223.21s-24.17,-9.06 -26.89,-0.6c-2.83,8.81 13,8.16 20.74,7.7 16.51,-0.98 19.55,-2.86 15.5,-4.16ZM177.86,152.51s-11.03,-34.29 -23.56,-28.06c-13.03,6.48 2.03,21.94 9.56,29.34 16.07,15.79 21.05,16.9 18.93,11.39Z" stroke-opacity="0.65" fill-opacity="0.65"/></g><path fill="#00000000" d="M159.54,136.66s27.71,33.81 34.34,50.73c7.62,19.44 12.81,41.35 13.83,59.49" stroke-linejoin="round" stroke-width="1.252" stroke="#ccc" stroke-linecap="round"/><path fill="#00000000" d="M188.36,176.35L192.21,144.11" stroke-linejoin="round" stroke-width="1.252" stroke="#ccc" stroke-linecap="round"/><path fill="#00000000" d="M193.88,187.39L207.82,160.29" stroke-linejoin="round" stroke-width="1.252" stroke="#ccc" stroke-linecap="round"/><path fill="#00000000" d="M191.84,183.37L162.65,177.43" stroke-linejoin="round" stroke-width="1.252" stroke="#ccc" stroke-linecap="round"/><path fill="#00000000" d="M199.36,202.76L216.52,183.21" stroke-linejoin="round" stroke-width="1.252" stroke="#ccc" stroke-linecap="round"/><path fill="#00000000" d="M196.96,196.32L174.92,196.13" stroke-linejoin="round" stroke-width="1.252" stroke="#ccc" stroke-linecap="round"/><path fill="#00000000" d="M201.21,212.32L184.3,212.99" stroke-linejoin="round" stroke-width="1.252" stroke="#ccc" stroke-linecap="round"/><path fill="#00000000" d="M204.68,222.53L213.73,210.47" stroke-linejoin="round" stroke-width="1.252" stroke="#ccc" stroke-linecap="round"/><path fill="#00000000" d="M205.34,227.02L185.57,226.04" stroke-linejoin="round" stroke-width="1.252" stroke="#ccc" stroke-linecap="round"/><path fill="#fba55f" d="M243.06,200.91c-3.41,1.29 -2.37,-1.59 8.18,-11.03 4.95,-4.43 15.22,-13.29 18.01,-5.87 2.68,7.13 -18.35,13.91 -18.35,13.91ZM248.43,209.68s22.09,0.42 21.87,-7.19c-0.23,-7.92 -12.83,-2.88 -18.94,-0.3 -13.05,5.51 -14.97,7.89 -11.32,7.78ZM240.11,221.76s16.83,3.52 17.76,-2.33c0.97,-6.09 -9.39,-4.06 -14.44,-2.97 -10.77,2.32 -12.59,3.86 -9.78,4.3ZM232.21,234.23s16.83,3.52 17.76,-2.33c0.97,-6.09 -9.39,-4.06 -14.44,-2.97 -10.77,2.32 -12.59,3.86 -9.78,4.31ZM236.67,196.79s-5.81,-21.32 -13.05,-18.97c-7.54,2.45 0.84,13.12 5.04,18.26 8.95,10.97 11.77,12.15 10.65,8.68ZM230.3,206.44s-9.93,-19.74 -16.56,-16c-6.9,3.9 3.43,12.69 8.57,16.89 10.95,8.97 13.95,9.56 12.16,6.39ZM224.6,218.32s-8.85,-16.46 -14.37,-13.14c-5.74,3.45 3.2,10.65 7.64,14.09 9.47,7.34 12.02,7.76 10.43,5.12ZM219.1,227.26s-7.06,-17.31 -12.9,-14.6c-6.08,2.83 2.05,10.93 6.1,14.82 8.64,8.3 11.13,9 9.83,6.2ZM248.76,183.91s12.81,-22.72 3.35,-26.32c-9.85,-3.75 -10.68,11.86 -10.91,19.51 -0.5,16.31 1.35,19.5 3.25,15.67Z"/><g><path fill="#e5e5e5" d="M243.06,200.91c-3.41,1.29 -2.37,-1.59 8.18,-11.03 4.95,-4.43 15.22,-13.29 18.01,-5.87 2.68,7.13 -18.35,13.91 -18.35,13.91ZM248.43,209.68s22.09,0.42 21.87,-7.19c-0.23,-7.92 -12.83,-2.88 -18.94,-0.3 -13.05,5.51 -14.97,7.89 -11.32,7.78ZM240.11,221.76s16.83,3.52 17.76,-2.33c0.97,-6.09 -9.39,-4.06 -14.44,-2.97 -10.77,2.32 -12.59,3.86 -9.78,4.3ZM232.21,234.23s16.83,3.52 17.76,-2.33c0.97,-6.09 -9.39,-4.06 -14.44,-2.97 -10.77,2.32 -12.59,3.86 -9.78,4.31ZM236.67,196.79s-5.81,-21.32 -13.05,-18.97c-7.54,2.45 0.84,13.12 5.04,18.26 8.95,10.97 11.77,12.15 10.65,8.68ZM230.3,206.44s-9.93,-19.74 -16.56,-16c-6.9,3.9 3.43,12.69 8.57,16.89 10.95,8.97 13.95,9.56 12.16,6.39ZM224.6,218.32s-8.85,-16.46 -14.37,-13.14c-5.74,3.45 3.2,10.65 7.64,14.09 9.47,7.34 12.02,7.76 10.43,5.12ZM219.1,227.26s-7.06,-17.31 -12.9,-14.6c-6.08,2.83 2.05,10.93 6.1,14.82 8.64,8.3 11.13,9 9.83,6.2ZM248.76,183.91s12.81,-22.72 3.35,-26.32c-9.85,-3.75 -10.68,11.86 -10.91,19.51 -0.5,16.31 1.35,19.5 3.25,15.67Z" stroke-opacity="0.65" fill-opacity="0.65"/></g><path fill="#00000000" d="M248.18,166.38s-4.36,31.35 -10.11,43.2c-6.6,13.61 -16.56,28.09 -25.7,37.55" stroke-linejoin="round" stroke-width="1.252" stroke="#ccc" stroke-linecap="round"/><path fill="#00000000" d="M241.23,201.21L260.27,187.42" stroke-linejoin="round" stroke-width="1.252" stroke="#ccc" stroke-linecap="round"/><path fill="#00000000" d="M238.07,209.57L259.34,203.67" stroke-linejoin="round" stroke-width="1.252" stroke="#ccc" stroke-linecap="round"/><path fill="#00000000" d="M239.21,206.52L228.02,188.07" stroke-linejoin="round" stroke-width="1.252" stroke="#ccc" stroke-linecap="round"/><path fill="#00000000" d="M232.59,220.05L251.43,219.57" stroke-linejoin="round" stroke-width="1.252" stroke="#ccc" stroke-linecap="round"/><path fill="#00000000" d="M234.84,215.61L224.11,203.79" stroke-linejoin="round" stroke-width="1.252" stroke="#ccc" stroke-linecap="round"/><path fill="#00000000" d="M228.41,225.73L219.75,217.07" stroke-linejoin="round" stroke-width="1.252" stroke="#ccc" stroke-linecap="round"/><path fill="#00000000" d="M224.69,232.6L235.55,231.48" stroke-linejoin="round" stroke-width="1.252" stroke="#ccc" stroke-linecap="round"/><path fill="#00000000" d="M222.63,235.15L213.43,224.15" stroke-linejoin="round" stroke-width="1.252" stroke="#ccc" stroke-linecap="round"/><path fill="#fba55f" d="M80.53,174.21c1.89,4.66 3.83,0.91 3.52,-18.64 -0.14,-9.16 -0.79,-27.88 -10.92,-23.76 -9.74,3.96 3.09,31.64 3.09,31.64ZM66.61,176.99s-21.12,-22.01 -13.2,-28.92c8.25,-7.19 14.94,10.31 18.05,18.93 6.64,18.39 6.03,22.57 2.72,18.77ZM62.16,196.74s-19.34,-13.77 -14.28,-20.2c5.26,-6.69 12.91,5.72 16.54,11.86 7.74,13.1 7.88,16.38 4.8,13.96ZM56.93,216.44s-19.34,-13.77 -14.28,-20.2c5.26,-6.69 12.91,5.72 16.54,11.86 7.74,13.1 7.88,16.38 4.8,13.96ZM90.7,176.84s27.06,-14.09 31.46,-4.54c4.58,9.93 -14.09,11.44 -23.24,12 -19.51,1.2 -23.35,-0.56 -18.78,-2.66ZM86.89,192.35s29.32,-8.43 31.74,1.8c2.52,10.65 -16.08,8.41 -25.16,7.14 -19.36,-2.7 -22.77,-5.19 -17.88,-6.34ZM80.18,209.25s24.99,-6.45 26.8,2.26c1.88,9.06 -13.8,6.74 -21.44,5.46 -16.31,-2.73 -19.14,-4.92 -14.97,-5.78ZM76.27,223.2s24.17,-9.06 26.89,-0.6c2.83,8.81 -13,8.16 -20.74,7.7 -16.51,-0.98 -19.55,-2.86 -15.5,-4.16ZM92.45,152.5s11.03,-34.29 23.56,-28.06c13.03,6.48 -2.03,21.94 -9.56,29.34 -16.07,15.79 -21.05,16.9 -18.93,11.39Z"/><g><path fill="#fff" d="M80.53,174.21c1.89,4.66 3.83,0.91 3.52,-18.64 -0.14,-9.16 -0.79,-27.88 -10.92,-23.76 -9.74,3.96 3.09,31.64 3.09,31.64ZM66.61,176.99s-21.12,-22.01 -13.2,-28.92c8.25,-7.19 14.94,10.31 18.05,18.93 6.64,18.39 6.03,22.57 2.72,18.77ZM62.16,196.74s-19.34,-13.77 -14.28,-20.2c5.26,-6.69 12.91,5.72 16.54,11.86 7.74,13.1 7.88,16.38 4.8,13.96ZM56.93,216.44s-19.34,-13.77 -14.28,-20.2c5.26,-6.69 12.91,5.72 16.54,11.86 7.74,13.1 7.88,16.38 4.8,13.96ZM90.7,176.84s27.06,-14.09 31.46,-4.54c4.58,9.93 -14.09,11.44 -23.24,12 -19.51,1.2 -23.35,-0.56 -18.78,-2.66ZM86.89,192.35s29.32,-8.43 31.74,1.8c2.52,10.65 -16.08,8.41 -25.16,7.14 -19.36,-2.7 -22.77,-5.19 -17.88,-6.34ZM80.18,209.25s24.99,-6.45 26.8,2.26c1.88,9.06 -13.8,6.74 -21.44,5.46 -16.31,-2.73 -19.14,-4.92 -14.97,-5.78ZM76.27,223.2s24.17,-9.06 26.89,-0.6c2.83,8.81 -13,8.16 -20.74,7.7 -16.51,-0.98 -19.55,-2.86 -15.5,-4.16ZM92.45,152.5s11.03,-34.29 23.56,-28.06c13.03,6.48 -2.03,21.94 -9.56,29.34 -16.07,15.79 -21.05,16.9 -18.93,11.39Z" stroke-opacity="0.65" fill-opacity="0.65"/></g><path fill="#00000000" d="M110.76,136.66s-27.71,33.81 -34.34,50.73c-7.62,19.44 -12.81,41.35 -13.83,59.49" stroke-linejoin="round" stroke-width="1.252" stroke="#ccc" stroke-linecap="round"/><path fill="#00000000" d="M81.94,176.35L78.09,144.11" stroke-linejoin="round" stroke-width="1.252" stroke="#ccc" stroke-linecap="round"/><path fill="#00000000" d="M76.43,187.39L62.49,160.29" stroke-linejoin="round" stroke-width="1.252" stroke="#ccc" stroke-linecap="round"/><path fill="#00000000" d="M78.46,183.37L107.65,177.43" stroke-linejoin="round" stroke-width="1.252" stroke="#ccc" stroke-linecap="round"/><path fill="#00000000" d="M70.94,202.76L53.78,183.21" stroke-linejoin="round" stroke-width="1.252" stroke="#ccc" stroke-linecap="round"/><path fill="#00000000" d="M73.34,196.32L95.38,196.13" stroke-linejoin="round" stroke-width="1.252" stroke="#ccc" stroke-linecap="round"/><path fill="#00000000" d="M69.1,212.32L86,212.99" stroke-linejoin="round" stroke-width="1.252" stroke="#ccc" stroke-linecap="round"/><path fill="#00000000" d="M65.62,222.53L56.57,210.47" stroke-linejoin="round" stroke-width="1.252" stroke="#ccc" stroke-linecap="round"/><path fill="#00000000" d="M64.96,227.02L84.73,226.04" stroke-linejoin="round" stroke-width="1.252" stroke="#ccc" stroke-linecap="round"/><path fill="#fba55f" d="M27.24,200.91c3.41,1.29 2.37,-1.59 -8.18,-11.03 -4.95,-4.43 -15.22,-13.29 -18.01,-5.87 -2.68,7.13 18.35,13.91 18.35,13.91ZM21.87,209.68S-0.22,210.1 0,202.49c0.23,-7.92 12.83,-2.88 18.94,-0.3 13.05,5.51 14.97,7.89 11.32,7.78ZM30.19,221.76s-16.83,3.52 -17.76,-2.33c-0.97,-6.09 9.39,-4.06 14.44,-2.97 10.77,2.32 12.59,3.86 9.78,4.3ZM38.09,234.23s-16.83,3.52 -17.76,-2.33c-0.97,-6.09 9.39,-4.06 14.44,-2.97 10.77,2.32 12.59,3.86 9.78,4.31ZM33.63,196.79s5.81,-21.32 13.05,-18.97c7.54,2.45 -0.84,13.12 -5.04,18.26 -8.95,10.97 -11.78,12.15 -10.65,8.68ZM40,206.44s9.93,-19.74 16.56,-16c6.9,3.9 -3.43,12.69 -8.57,16.89 -10.95,8.97 -13.95,9.56 -12.16,6.39ZM45.7,218.32s8.85,-16.46 14.37,-13.14c5.74,3.45 -3.2,10.65 -7.64,14.09 -9.47,7.34 -12.02,7.76 -10.43,5.12ZM51.2,227.26s7.06,-17.31 12.9,-14.6c6.08,2.83 -2.05,10.93 -6.1,14.82 -8.64,8.3 -11.13,9 -9.83,6.2ZM21.55,183.91S8.73,161.18 18.2,157.58c9.85,-3.75 10.68,11.86 10.91,19.51 0.5,16.31 -1.35,19.5 -3.25,15.67Z"/><g><path fill="#e5e5e5" d="M27.24,200.91c3.41,1.29 2.37,-1.59 -8.18,-11.03 -4.95,-4.43 -15.22,-13.29 -18.01,-5.87 -2.68,7.13 18.35,13.91 18.35,13.91ZM21.87,209.68S-0.22,210.1 0,202.49c0.23,-7.92 12.83,-2.88 18.94,-0.3 13.05,5.51 14.97,7.89 11.32,7.78ZM30.19,221.76s-16.83,3.52 -17.76,-2.33c-0.97,-6.09 9.39,-4.06 14.44,-2.97 10.77,2.32 12.59,3.86 9.78,4.3ZM38.09,234.23s-16.83,3.52 -17.76,-2.33c-0.97,-6.09 9.39,-4.06 14.44,-2.97 10.77,2.32 12.59,3.86 9.78,4.31ZM33.63,196.79s5.81,-21.32 13.05,-18.97c7.54,2.45 -0.84,13.12 -5.04,18.26 -8.95,10.97 -11.78,12.15 -10.65,8.68ZM40,206.44s9.93,-19.74 16.56,-16c6.9,3.9 -3.43,12.69 -8.57,16.89 -10.95,8.97 -13.95,9.56 -12.16,6.39ZM45.7,218.32s8.85,-16.46 14.37,-13.14c5.74,3.45 -3.2,10.65 -7.64,14.09 -9.47,7.34 -12.02,7.76 -10.43,5.12ZM51.2,227.26s7.06,-17.31 12.9,-14.6c6.08,2.83 -2.05,10.93 -6.1,14.82 -8.64,8.3 -11.13,9 -9.83,6.2ZM21.55,183.91S8.73,161.18 18.2,157.58c9.85,-3.75 10.68,11.86 10.91,19.51 0.5,16.31 -1.35,19.5 -3.25,15.67Z" stroke-opacity="0.65" fill-opacity="0.65"/></g><path fill="#00000000" d="M22.12,166.38s4.36,31.35 10.11,43.2c6.6,13.61 16.56,28.09 25.7,37.55" stroke-linejoin="round" stroke-width="1.252" stroke="#ccc" stroke-linecap="round"/><path fill="#00000000" d="M29.07,201.21L10.03,187.42" stroke-linejoin="round" stroke-width="1.252" stroke="#ccc" stroke-linecap="round"/><path fill="#00000000" d="M32.23,209.57L10.97,203.67" stroke-linejoin="round" stroke-width="1.252" stroke="#ccc" stroke-linecap="round"/><path fill="#00000000" d="M31.09,206.52L42.28,188.07" stroke-linejoin="round" stroke-width="1.252" stroke="#ccc" stroke-linecap="round"/><path fill="#00000000" d="M37.71,220.05L18.87,219.57" stroke-linejoin="round" stroke-width="1.252" stroke="#ccc" stroke-linecap="round"/><path fill="#00000000" d="M35.46,215.61L46.19,203.79" stroke-linejoin="round" stroke-width="1.252" stroke="#ccc" stroke-linecap="round"/><path fill="#00000000" d="M41.89,225.73L50.55,217.07" stroke-linejoin="round" stroke-width="1.252" stroke="#ccc" stroke-linecap="round"/><path fill="#00000000" d="M45.61,232.6L34.75,231.48" stroke-linejoin="round" stroke-width="1.252" stroke="#ccc" stroke-linecap="round"/><path fill="#00000000" d="M47.68,235.15L56.87,224.15" stroke-linejoin="round" stroke-width="1.252" stroke="#ccc" stroke-linecap="round"/></g><path fill="#fff" d="M90.07,171.93h71.19v14.57h-71.19z" id="path_0"/><path fill="#00000000" d="M90.07,171.93h71.19v14.57h-71.19z" stroke-linejoin="round" stroke-width="1" stroke="#263238" stroke-linecap="round" id="path_1"/><path fill="#00000000" d="M90.81,175.71L103.3,175.71" stroke-linejoin="round" stroke-width="1" stroke="#263238" stroke-linecap="round" id="path_2"/><path fill="#00000000" d="M107.47,179.68L109.17,179.68" stroke-linejoin="round" stroke-width="1" stroke="#263238" stroke-linecap="round" id="path_3"/><path fill="#00000000" d="M90.62,179.68L104.63,179.68" stroke-linejoin="round" stroke-width="1" stroke="#263238" stroke-linecap="round" id="path_4"/><path fill="#00000000" d="M90.91,183.8L96.68,183.8" stroke-linejoin="round" stroke-width="1" stroke="#263238" stroke-linecap="round" id="path_5"/><g id="g_3"><path fill="#fff" d="M146.64,172.43a26.51,26.51 0,0 0,0 13.73h28.69s-3.02,-8.71 0,-13.73Z" clip-path="url(#clip_path_3)"/></g><g id="g_4"><g clip-path="url(#clip_path_4)"><path fill="#000000FF" d="M146.64,172.43a26.51,26.51 0,0 0,0 13.73h28.69s-3.02,-8.71 0,-13.73Z" stroke-opacity="0.24" fill-opacity="0.24"/><path fill="#00000000" d="M146.64,172.43a26.51,26.51 0,0 0,0 13.73h28.69s-3.02,-8.71 0,-13.73Z" stroke-opacity="0.24" stroke-linejoin="round" stroke-width="1" stroke="#263238" fill-opacity="0.24" stroke-linecap="round"/></g></g><g id="g_5"><path fill="#00000000" d="M146.64,172.43a26.51,26.51 0,0 0,0 13.73h28.69s-3.02,-8.71 0,-13.73Z" stroke-linejoin="round" stroke-width="1" stroke="#263238" stroke-linecap="round" clip-path="url(#clip_path_5)"/><path fill="#263238" d="M90.91,183.8v-9.95a0.92,0.92 0,0 1,0.92 -0.92h84.64a0.7,0.7 0,1 0,0 -1.39L89.54,171.54a0.92,0.92 0,0 0,-0.92 0.92L88.62,185.19a1.49,1.49 0,0 0,1.49 1.49h86.36a0.7,0.7 0,1 0,0 -1.39L92.4,185.29a1.49,1.49 0,0 1,-1.49 -1.49"/><path fill="#00000000" d="M90.91,183.8v-9.95a0.92,0.92 0,0 1,0.92 -0.92h84.64a0.7,0.7 0,1 0,0 -1.39L89.54,171.54a0.92,0.92 0,0 0,-0.92 0.92L88.62,185.19a1.49,1.49 0,0 0,1.49 1.49h86.36a0.7,0.7 0,1 0,0 -1.39L92.4,185.29A1.49,1.49 0,0 1,90.91 183.8Z" stroke-linejoin="round" stroke-width="1" stroke="#263238" stroke-linecap="round"/><path fill="#fff" d="M90.07,202h71.19v14.57h-71.19z"/><path fill="#00000000" d="M90.07,202h71.19v14.57h-71.19z" stroke-linejoin="round" stroke-width="1" stroke="#263238" stroke-linecap="round"/><path fill="#00000000" d="M91.26,204.81L103.76,204.81" stroke-linejoin="round" stroke-width="1" stroke="#263238" stroke-linecap="round"/><path fill="#00000000" d="M107.92,208.79L109.63,208.79" stroke-linejoin="round" stroke-width="1" stroke="#263238" stroke-linecap="round"/><path fill="#00000000" d="M91.07,208.79L105.08,208.79" stroke-linejoin="round" stroke-width="1" stroke="#263238" stroke-linecap="round"/><path fill="#00000000" d="M91.36,212.9L97.13,212.9" stroke-linejoin="round" stroke-width="1" stroke="#263238" stroke-linecap="round"/><path fill="#fff" d="M147.09,202.5a26.51,26.51 0,0 0,0 13.73h28.24s-3.02,-8.71 0,-13.73Z"/></g><g id="g_6"><g clip-path="url(#clip_path_6)"><path fill="#000000FF" d="M147.09,202.51a26.51,26.51 0,0 0,0 13.73h28.24s-3.02,-8.71 0,-13.73Z" stroke-opacity="0.24" fill-opacity="0.24"/><path fill="#00000000" d="M147.09,202.51a26.51,26.51 0,0 0,0 13.73h28.24s-3.02,-8.71 0,-13.73Z" stroke-opacity="0.24" stroke-linejoin="round" stroke-width="1" stroke="#263238" fill-opacity="0.24" stroke-linecap="round"/></g></g><g id="g_7"><path fill="#00000000" d="M147.09,202.5a26.51,26.51 0,0 0,0 13.73h28.24s-3.02,-8.71 0,-13.73Z" stroke-linejoin="round" stroke-width="1" stroke="#263238" stroke-linecap="round" clip-path="url(#clip_path_7)"/><path fill="#263238" d="M90.91,213.88v-9.95a0.92,0.92 0,0 1,0.92 -0.92h84.64a0.7,0.7 0,1 0,0 -1.39L89.54,201.61a0.92,0.92 0,0 0,-0.92 0.92v12.74a1.49,1.49 0,0 0,1.49 1.49h86.36a0.7,0.7 0,1 0,0 -1.39L92.4,215.37a1.49,1.49 0,0 1,-1.49 -1.49"/><path fill="#00000000" d="M90.91,213.88v-9.95a0.92,0.92 0,0 1,0.92 -0.92h84.64a0.7,0.7 0,1 0,0 -1.39L89.54,201.61a0.92,0.92 0,0 0,-0.92 0.92v12.74a1.49,1.49 0,0 0,1.49 1.49h86.36a0.7,0.7 0,1 0,0 -1.39L92.4,215.37A1.49,1.49 0,0 1,90.91 213.88Z" stroke-linejoin="round" stroke-width="1" stroke="#263238" stroke-linecap="round"/><path fill="#fff" d="M90.98,230.46c0.5,-1.67 2.33,-8.59 0.07,-13.02h81.92v13.02Z"/><path fill="#00000000" d="M90.98,230.46c0.5,-1.67 2.33,-8.59 0.07,-13.02h81.92v13.02Z" stroke-linejoin="round" stroke-width="1" stroke="#263238" stroke-linecap="round"/><path fill="#00000000" d="M139.89,220.32L127.39,220.32" stroke-linejoin="round" stroke-width="1" stroke="#263238" stroke-linecap="round"/><path fill="#00000000" d="M123.22,224.29L121.52,224.29" stroke-linejoin="round" stroke-width="1" stroke="#263238" stroke-linecap="round"/><path fill="#00000000" d="M140.08,224.29L126.07,224.29" stroke-linejoin="round" stroke-width="1" stroke="#263238" stroke-linecap="round"/><path fill="#00000000" d="M139.79,228.41L134.02,228.41" stroke-linejoin="round" stroke-width="1" stroke="#263238" stroke-linecap="round"/><path fill="#263238" d="M140.35,229.14v-9.95a0.92,0.92 0,0 0,-0.92 -0.92L89.32,218.27a0.7,0.7 0,1 1,0 -1.39h86.93a0.92,0.92 0,0 1,0.92 0.92v12.74a1.49,1.49 0,0 1,-1.49 1.49L89.32,232.03a0.7,0.7 0,1 1,0 -1.39h49.54a1.49,1.49 0,0 0,1.49 -1.49"/><path fill="#00000000" d="M140.35,229.14v-9.95a0.92,0.92 0,0 0,-0.92 -0.92L89.32,218.27a0.7,0.7 0,1 1,0 -1.39h86.93a0.92,0.92 0,0 1,0.92 0.92v12.74a1.49,1.49 0,0 1,-1.49 1.49L89.32,232.03a0.7,0.7 0,1 1,0 -1.39h49.54A1.49,1.49 0,0 0,140.35 229.14Z" stroke-linejoin="round" stroke-width="1" stroke="#263238" stroke-linecap="round"/><path fill="#fff" d="M90.98,245.72c0.5,-1.67 2.33,-8.59 0.07,-13.02h81.92L172.96,245.72Z"/><path fill="#00000000" d="M90.98,245.72c0.5,-1.67 2.33,-8.59 0.07,-13.02h81.92L172.96,245.72Z" stroke-linejoin="round" stroke-width="1" stroke="#263238" stroke-linecap="round"/><path fill="#00000000" d="M139.85,235.67L127.35,235.67" stroke-linejoin="round" stroke-width="1" stroke="#263238" stroke-linecap="round"/><path fill="#00000000" d="M123.19,239.65L121.48,239.65" stroke-linejoin="round" stroke-width="1" stroke="#263238" stroke-linecap="round"/><path fill="#00000000" d="M140.04,239.65L126.03,239.65" stroke-linejoin="round" stroke-width="1" stroke="#263238" stroke-linecap="round"/><path fill="#00000000" d="M139.75,243.77L133.98,243.77" stroke-linejoin="round" stroke-width="1" stroke="#263238" stroke-linecap="round"/><path fill="#fba55f" d="M140.35,244.4v-9.95a0.92,0.92 0,0 0,-0.92 -0.92L89.32,233.53a0.7,0.7 0,1 1,0 -1.39h86.93a0.92,0.92 0,0 1,0.92 0.92L177.17,245.79a1.49,1.49 0,0 1,-1.49 1.49L89.32,247.29a0.7,0.7 0,1 1,0 -1.39h49.54a1.49,1.49 0,0 0,1.49 -1.49"/><path fill="#00000000" d="M140.35,244.4v-9.95a0.92,0.92 0,0 0,-0.92 -0.92L89.32,233.53a0.7,0.7 0,1 1,0 -1.39h86.93a0.92,0.92 0,0 1,0.92 0.92L177.17,245.79a1.49,1.49 0,0 1,-1.49 1.49L89.32,247.29a0.7,0.7 0,1 1,0 -1.39h49.54A1.49,1.49 0,0 0,140.35 244.4Z" stroke-linejoin="round" stroke-width="1" stroke="#263238" stroke-linecap="round"/><path fill="#fff" d="M90.98,199.93c0.5,-1.67 2.33,-8.59 0.07,-13.02h81.92L172.96,199.93Z"/><path fill="#00000000" d="M90.98,199.93c0.5,-1.67 2.33,-8.59 0.07,-13.02h81.92L172.96,199.93Z" stroke-linejoin="round" stroke-width="1" stroke="#263238" stroke-linecap="round"/><path fill="#00000000" d="M140.07,189.83L127.57,189.83" stroke-linejoin="round" stroke-width="1" stroke="#263238" stroke-linecap="round"/><path fill="#00000000" d="M123.4,193.8L121.7,193.8" stroke-linejoin="round" stroke-width="1" stroke="#263238" stroke-linecap="round"/><path fill="#00000000" d="M140.25,193.8L126.24,193.8" stroke-linejoin="round" stroke-width="1" stroke="#263238" stroke-linecap="round"/><path fill="#00000000" d="M139.96,197.92L134.2,197.92" stroke-linejoin="round" stroke-width="1" stroke="#263238" stroke-linecap="round"/><path fill="#fba55f" d="M140.35,198.62v-9.95a0.92,0.92 0,0 0,-0.92 -0.92L89.32,187.74a0.7,0.7 0,1 1,0 -1.39h86.93a0.92,0.92 0,0 1,0.92 0.92L177.17,200.01a1.49,1.49 0,0 1,-1.49 1.49L89.32,201.5a0.7,0.7 0,1 1,0 -1.39h49.54a1.49,1.49 0,0 0,1.49 -1.49"/><path fill="#00000000" d="M140.35,198.62v-9.95a0.92,0.92 0,0 0,-0.92 -0.92L89.32,187.74a0.7,0.7 0,1 1,0 -1.39h86.93a0.92,0.92 0,0 1,0.92 0.92L177.17,200.01a1.49,1.49 0,0 1,-1.49 1.49L89.32,201.5a0.7,0.7 0,1 1,0 -1.39h49.54A1.49,1.49 0,0 0,140.35 198.62Z" stroke-linejoin="round" stroke-width="1" stroke="#263238" stroke-linecap="round"/><path fill="#263238" d="M121.05,139.33a69.92,69.92 0,0 1,-17.06 -2.24c-10.1,-2.47 -18.41,-0.67 -19.98,8.98s24.24,19.53 42.2,23.12 35.91,5.16 44.67,1.35 8.53,-17.51 5.16,-23.79 -14.59,-7.18 -20.43,-6.28 -34.57,-1.12 -34.57,-1.12"/><path fill="#00000000" d="M121.05,139.33a69.92,69.92 0,0 1,-17.06 -2.24c-10.1,-2.47 -18.41,-0.67 -19.98,8.98s24.24,19.53 42.2,23.12 35.91,5.16 44.67,1.35 8.53,-17.51 5.16,-23.79 -14.59,-7.18 -20.43,-6.28S121.05,139.33 121.05,139.33Z" stroke-linejoin="round" stroke-width="1" stroke="#263238" stroke-linecap="round"/><path fill="#263238" d="M166.39,97.13q-1.45,-9.7 -2.89,-19.4c-0.9,-6.01 -1.27,-12.44 -2.84,-18.3 -2.02,-8.75 -5.05,-13.47 -14.14,-15.15s-19.19,8.08 -19.19,12.46 3.12,14.26 -1.68,29.8c-1.64,5.32 4.71,6.07 12.4,3.72Z"/><path fill="#00000000" d="M166.39,97.13q-1.45,-9.7 -2.89,-19.4c-0.9,-6.01 -1.27,-12.44 -2.84,-18.3 -2.02,-8.75 -5.05,-13.47 -14.14,-15.15s-19.19,8.08 -19.19,12.46 3.12,14.26 -1.68,29.8c-1.64,5.32 4.71,6.07 12.4,3.72Z" stroke-linejoin="round" stroke-width="1" stroke="#263238" stroke-linecap="round"/><path fill="#fba55f" d="M141.98,83.66s-11.11,1.51 -16.33,2.86 -7.1,3.26 -8.95,6.8 -4.67,16.79 -7.36,22.35 -7.59,7.05 -8.43,12.94 3.87,7.91 7.41,8.59a63.3,63.3 0,0 0,7.91 0.84s5.72,13.47 16.83,14.48 19.36,-6.73 24.41,-9.6 5.39,-9.43 5.55,-17 4.64,-24.61 3.46,-29.32 -2.94,-5.49 -10.59,-9.41c-3.27,-1.68 -9.21,-3.86 -13.92,-3.52"/><path fill="#00000000" d="M141.98,83.66s-11.11,1.51 -16.33,2.86 -7.1,3.26 -8.95,6.8 -4.67,16.79 -7.36,22.35 -7.59,7.05 -8.43,12.94 3.87,7.91 7.41,8.59a63.3,63.3 0,0 0,7.91 0.84s5.72,13.47 16.83,14.48 19.36,-6.73 24.41,-9.6 5.39,-9.43 5.55,-17 4.64,-24.61 3.46,-29.32 -2.94,-5.49 -10.59,-9.41C152.63,85.51 146.7,83.32 141.98,83.66Z" stroke-linejoin="round" stroke-width="1" stroke="#263238" stroke-linecap="round"/><path fill="#fff" d="M107.06,119.14c-2.57,3.08 -5.51,5.02 -6.15,9.47a8.23,8.23 0,0 0,0.03 2.67,5.85 5.85,0 0,0 6.91,2.32c5.14,-1.47 4.59,-8.64 1.47,-13.05a3.17,3.17 0,0 0,-2.26 -1.41"/><path fill="#00000000" d="M107.06,119.14c-2.57,3.08 -5.51,5.02 -6.15,9.47a8.23,8.23 0,0 0,0.03 2.67,5.85 5.85,0 0,0 6.91,2.32c5.14,-1.47 4.59,-8.64 1.47,-13.05A3.17,3.17 0,0 0,107.06 119.14Z" stroke-linejoin="round" stroke-width="1" stroke="#263238" stroke-linecap="round"/><path fill="#fff" d="M141.2,106.4c4.71,-2.16 7.26,-5.88 9.41,-12.94a67.65,67.65 0,0 0,1.92 -7.77c-3.2,-1.23 -7.18,-2.27 -10.54,-2.03 0,0 -4.8,0.65 -9.57,1.49 -0.4,2.48 -1.35,9.53 -0.24,14.78 1.37,6.47 4.31,8.63 9.02,6.47"/><path fill="#00000000" d="M141.2,106.4c4.71,-2.16 7.26,-5.88 9.41,-12.94a67.65,67.65 0,0 0,1.92 -7.77c-3.2,-1.23 -7.18,-2.27 -10.54,-2.03 0,0 -4.8,0.65 -9.57,1.49 -0.4,2.48 -1.35,9.53 -0.24,14.78C133.55,106.4 136.49,108.55 141.2,106.4Z" stroke-linejoin="round" stroke-width="1" stroke="#263238" stroke-linecap="round"/><path fill="#00000000" d="M118.92,130.97s3.37,-8.42 3.37,-10.77 -1.51,-4.71 -2.69,-7.74 1.85,-8.08 1.85,-8.08 1.91,-14.64 3.67,-17.18" stroke-linejoin="round" stroke-width="1" stroke="#263238" stroke-linecap="round"/><path fill="#fff" d="M102.93,114.47l2.53,-2.69a27.26,27.26 0,0 0,5.22 2.19c6.82,2.27 9.93,3.7 10.27,7.74 0,0 4.55,-2.86 9.09,-2.36s8.59,2.36 9.93,2.53l1.35,0.17 0.34,2.36 -2.53,13.3 -19.7,-2.02 -13.47,-11.78Z"/><path fill="#00000000" d="M102.93,114.47l2.53,-2.69a27.26,27.26 0,0 0,5.22 2.19c6.82,2.27 9.93,3.7 10.27,7.74 0,0 4.55,-2.86 9.09,-2.36s8.59,2.36 9.93,2.53l1.35,0.17 0.34,2.36 -2.53,13.3 -19.7,-2.02 -13.47,-11.78Z" stroke-linejoin="round" stroke-width="1" stroke="#263238" stroke-linecap="round"/><path fill="#263238" d="M102.09,113.96 L118.08,127.6l1.68,-2.69 22.89,-0.5L141.31,139.22l-21.72,-1.01L118.08,139.22l-11.78,-8.75Z"/><path fill="#00000000" d="M102.09,113.96 L118.08,127.6l1.68,-2.69 22.89,-0.5L141.31,139.22l-21.72,-1.01L118.08,139.22l-11.78,-8.75Z" stroke-linejoin="round" stroke-width="1" stroke="#263238" stroke-linecap="round"/><path fill="#fff" d="M157.81,109.42l-0.34,19.19s-9.93,5.55 -15.49,7.07a36.56,36.56 0,0 1,-9.43 1.51c-0.5,0 -2.69,-3.54 -3.87,-4.71s-2.13,-1.2 -4.28,-2.28c-3,-1.5 -4.3,-1.76 -4.13,-1.09s0.34,1.35 1.85,2.19 2.53,1.51 2.53,1.51l0.34,0.67s-3.7,-0.5 -5.22,-0.84 -5.39,-3.03 -5.39,-3.03 -1.65,-0.1 -0.47,1.92 2.32,2.12 2.32,2.12a6.11,6.11 0,0 0,1.68 3.2,25.37 25.37,0 0,0 2.36,1.85s-3.2,-0.84 -2.86,0 2.36,1.18 4.88,2.36 8.25,1.35 11.45,1.85a80.41,80.41 0,0 0,17.51 0.34c6.73,-0.67 16.83,-5.22 18.69,-6.73s0.67,-18.52 0.17,-22.39 -1.51,-11.11 -2.19,-14.48 -3.37,-8.08 -5.05,-9.09 -4.71,2.19 -5.05,18.85"/><path fill="#00000000" d="M157.81,109.42l-0.34,19.19s-9.93,5.55 -15.49,7.07a36.56,36.56 0,0 1,-9.43 1.51c-0.5,0 -2.69,-3.54 -3.87,-4.71s-2.13,-1.2 -4.28,-2.28c-3,-1.5 -4.3,-1.76 -4.13,-1.09s0.34,1.35 1.85,2.19 2.53,1.51 2.53,1.51l0.34,0.67s-3.7,-0.5 -5.22,-0.84 -5.39,-3.03 -5.39,-3.03 -1.65,-0.1 -0.47,1.92 2.32,2.12 2.32,2.12a6.11,6.11 0,0 0,1.68 3.2,25.37 25.37,0 0,0 2.36,1.85s-3.2,-0.84 -2.86,0 2.36,1.18 4.88,2.36 8.25,1.35 11.45,1.85a80.41,80.41 0,0 0,17.51 0.34c6.73,-0.67 16.83,-5.22 18.69,-6.73s0.67,-18.52 0.17,-22.39 -1.51,-11.11 -2.19,-14.48 -3.37,-8.08 -5.05,-9.09S158.14,92.75 157.81,109.42Z" stroke-linejoin="round" stroke-width="1" stroke="#263238" stroke-linecap="round"/><path fill="#fff" d="M116.23,133.66a30.56,30.56 0,0 0,7.01 3.04"/><path fill="#00000000" d="M116.23,133.66a30.56,30.56 0,0 0,7.01 3.04" stroke-linejoin="round" stroke-width="1" stroke="#263238" stroke-linecap="round"/><path fill="#fff" d="M120.27,138.71a13.13,13.13 0,0 0,3.96 0.82"/><path fill="#00000000" d="M120.27,138.71a13.13,13.13 0,0 0,3.96 0.82" stroke-linejoin="round" stroke-width="1" stroke="#263238" stroke-linecap="round"/><path fill="#fff" d="M116.74,135.37a20.48,20.48 0,0 0,7 3.16"/><path fill="#00000000" d="M116.74,135.37a20.48,20.48 0,0 0,7 3.16" stroke-linejoin="round" stroke-width="1" stroke="#263238" stroke-linecap="round"/><path fill="#fba55f" d="M153.25,142.96c6.58,-1.22 15,-5.07 16.68,-6.44 1.85,-1.51 0.67,-18.52 0.17,-22.39s-1.51,-11.11 -2.19,-14.48 -3.37,-8.08 -5.05,-9.09 -4.71,2.19 -5.05,18.85l-0.34,19.19s-3.86,2.16 -8.11,4.15c1.64,1.78 4.41,5.55 3.89,10.2"/><path fill="#00000000" d="M153.25,142.96c6.58,-1.22 15,-5.07 16.68,-6.44 1.85,-1.51 0.67,-18.52 0.17,-22.39s-1.51,-11.11 -2.19,-14.48 -3.37,-8.08 -5.05,-9.09 -4.71,2.19 -5.05,18.85l-0.34,19.19s-3.86,2.16 -8.11,4.15C151,134.54 153.77,138.31 153.25,142.96Z" stroke-linejoin="round" stroke-width="1" stroke="#263238" stroke-linecap="round"/><path fill="#fff" d="M136.01,81.66a129.62,129.62 0,0 0,-1.66 14.15c-0.15,5.42 3.91,10.84 9.63,3.91s4.82,-18.36 4.82,-18.36a15.92,15.92 0,0 1,-12.79 0.3"/><path fill="#00000000" d="M136.01,81.66a129.62,129.62 0,0 0,-1.66 14.15c-0.15,5.42 3.91,10.84 9.63,3.91s4.82,-18.36 4.82,-18.36A15.92,15.92 0,0 1,136.01 81.66Z" stroke-linejoin="round" stroke-width="1" stroke="#263238" stroke-linecap="round"/><path fill="#00000000" d="M136.46,85.43a40.68,40.68 0,0 1,-0.15 7.22" stroke-linejoin="round" stroke-width="1" stroke="#263238" stroke-linecap="round"/><path fill="#fff" d="M102.54,126.82a2.9,2.9 0,0 0,0.26 2.31c0.68,1.11 4.27,3.25 4.27,2.39s-1.79,-2.05 -1.88,-2.65a5.14,5.14 0,0 0,-0.6 -1.45s-1.28,-1.62 -2.05,-0.6"/><path fill="#00000000" d="M102.54,126.82a2.9,2.9 0,0 0,0.26 2.31c0.68,1.11 4.27,3.25 4.27,2.39s-1.79,-2.05 -1.88,-2.65a5.14,5.14 0,0 0,-0.6 -1.45S103.31,125.8 102.54,126.82Z" stroke-linejoin="round" stroke-width="1" stroke="#263238" stroke-linecap="round"/><path fill="#fff" d="M100.82,121.83a12.44,12.44 0,0 0,0.26 3.66c0.43,1.17 4.93,4.28 6.09,3.68s-2.4,-3.68 -3.24,-4.65a29.38,29.38 0,0 0,-3.1 -2.69"/><path fill="#00000000" d="M100.82,121.83a12.44,12.44 0,0 0,0.26 3.66c0.43,1.17 4.93,4.28 6.09,3.68s-2.4,-3.68 -3.24,-4.65A29.38,29.38 0,0 0,100.82 121.83Z" stroke-linejoin="round" stroke-width="1" stroke="#263238" stroke-linecap="round"/><path fill="#fff" d="M100.83,118.79a12.46,12.46 0,0 0,0 3.67c0.34,1.2 4.61,4.61 5.81,4.1s-2.13,-3.84 -2.9,-4.87a29.38,29.38 0,0 0,-2.9 -2.9"/><path fill="#00000000" d="M100.83,118.79a12.46,12.46 0,0 0,0 3.67c0.34,1.2 4.61,4.61 5.81,4.1s-2.13,-3.84 -2.9,-4.87A29.38,29.38 0,0 0,100.83 118.79Z" stroke-linejoin="round" stroke-width="1" stroke="#263238" stroke-linecap="round"/><path fill="#fff" d="M102.88,115.97s-2.56,-1.37 -2.99,0.34 1.54,3.5 3.33,4.95 2.56,1.2 2.56,-0.17 -2.9,-5.13 -2.9,-5.13"/><path fill="#00000000" d="M102.88,115.97s-2.56,-1.37 -2.99,0.34 1.54,3.5 3.33,4.95 2.56,1.2 2.56,-0.17S102.88,115.97 102.88,115.97Z" stroke-linejoin="round" stroke-width="1" stroke="#263238" stroke-linecap="round"/><path fill="#fff" d="M102.65,169.4s-3.37,1.8 -9.65,2.02 -11.45,-3.14 -8.53,-5.84a14.19,14.19 0,0 1,11.45 -3.59c4.04,0.67 10.1,2.24 10.1,2.24Z"/><path fill="#00000000" d="M102.65,169.4s-3.37,1.8 -9.65,2.02 -11.45,-3.14 -8.53,-5.84a14.19,14.19 0,0 1,11.45 -3.59c4.04,0.67 10.1,2.24 10.1,2.24Z" stroke-linejoin="round" stroke-width="1" stroke="#263238" stroke-linecap="round"/><path fill="#fff" d="M103.55,163.8c0.31,0.04 0.63,0.05 0.95,0.07 -2.06,-0.51 -5.8,-1.4 -8.58,-1.86a14.19,14.19 0,0 0,-11.45 3.59c-1.49,1.37 -0.87,2.92 0.91,4.08a4.32,4.32 0,0 1,2.68 -4.53c3.82,-1.8 11.67,-1.8 15.49,-1.35"/><path fill="#00000000" d="M103.55,163.8c0.31,0.04 0.63,0.05 0.95,0.07 -2.06,-0.51 -5.8,-1.4 -8.58,-1.86a14.19,14.19 0,0 0,-11.45 3.59c-1.49,1.37 -0.87,2.92 0.91,4.08a4.32,4.32 0,0 1,2.68 -4.53C91.87,163.34 99.73,163.34 103.55,163.8Z" stroke-linejoin="round" stroke-width="1" stroke="#263238" stroke-linecap="round"/><path fill="#263238" d="M172.91,150.77s-6.73,10.1 -13.47,14.14 -37.48,4.49 -43.77,4.49L102.65,169.4v-4.71s20.65,-2.92 32.1,-9.43 17.51,-13.69 26.49,-16.61 16.83,2.02 16.61,14.14"/><path fill="#00000000" d="M172.91,150.77s-6.73,10.1 -13.47,14.14 -37.48,4.49 -43.77,4.49L102.65,169.4v-4.71s20.65,-2.92 32.1,-9.43 17.51,-13.69 26.49,-16.61 16.83,2.02 16.61,14.14" stroke-linejoin="round" stroke-width="1" stroke="#263238" stroke-linecap="round"/><path fill="#00000000" d="M168.38,158.5A38.27,38.27 0,0 1,148.75 168.21" stroke-linejoin="round" stroke-width="1" stroke="#fff" stroke-linecap="round"/><path fill="#00000000" d="M172.79,153.02a17.21,17.21 0,0 1,-1.89 2.77" stroke-linejoin="round" stroke-width="1" stroke="#fff" stroke-linecap="round"/><path fill="#00000000" d="M138.79,154.03a19.73,19.73 0,0 1,-10.77 4.04" stroke-linejoin="round" stroke-width="1" stroke="#fff" stroke-linecap="round"/><path fill="#263238" d="M98.68,141.19c-0.25,-0.03 -0.49,-0.05 -0.74,-0.07"/><path fill="#00000000" d="M98.68,141.19c-0.25,-0.03 -0.49,-0.05 -0.74,-0.07" stroke-linejoin="round" stroke-width="1" stroke="#263238" stroke-linecap="round"/><path fill="#fff" d="M161.91,170.3a62.84,62.84 0,0 1,10.32 -2.69c4.71,-0.67 8.53,0 9.88,2.92s0.45,6.51 -4.26,7.41 -13.24,-0.9 -14.14,-0.9a6.61,6.61 0,0 1,-2.24 -0.67Z"/><path fill="#00000000" d="M161.91,170.3a62.84,62.84 0,0 1,10.32 -2.69c4.71,-0.67 8.53,0 9.88,2.92s0.45,6.51 -4.26,7.41 -13.24,-0.9 -14.14,-0.9a6.61,6.61 0,0 1,-2.24 -0.67Z" stroke-linejoin="round" stroke-width="1" stroke="#263238" stroke-linecap="round"/><path fill="#fff" d="M176.67,167.43c1.43,0.55 4.14,2.07 3.64,5.57 -0.67,4.71 -6.28,4.71 -10.1,4.71a3.14,3.14 0,0 0,-0.83 0.12,30.91 30.91,0 0,0 8.46,0.11c4.71,-0.9 5.61,-4.49 4.26,-7.41 -0.89,-1.92 -2.85,-2.87 -5.44,-3.1"/><path fill="#00000000" d="M176.67,167.43c1.43,0.55 4.14,2.07 3.64,5.57 -0.67,4.71 -6.28,4.71 -10.1,4.71a3.14,3.14 0,0 0,-0.83 0.12,30.91 30.91,0 0,0 8.46,0.11c4.71,-0.9 5.61,-4.49 4.26,-7.41C181.22,168.6 179.25,167.66 176.67,167.43Z" stroke-linejoin="round" stroke-width="1" stroke="#263238" stroke-linecap="round"/><path fill="#263238" d="M96.14,136.18s-7.63,-1.35 -12.57,2.47 -4.26,7.86 0.45,13.69 16.83,16.16 43.1,20.87 34.34,3.14 34.34,3.14l0.45,-6.06a53.41,53.41 0,0 1,-31.42 -10.1c-14.7,-10.75 -21.25,-17.85 -31.81,-19.01"/><path fill="#00000000" d="M96.14,136.18s-7.63,-1.35 -12.57,2.47 -4.26,7.86 0.45,13.69 16.83,16.16 43.1,20.87 34.34,3.14 34.34,3.14l0.45,-6.06a53.41,53.41 0,0 1,-31.42 -10.1c-14.7,-10.75 -21.25,-17.85 -31.81,-19.01" stroke-linejoin="round" stroke-width="1" stroke="#263238" stroke-linecap="round"/><path fill="#00000000" d="M95.74,141.29a19.03,19.03 0,0 0,-2.41 0.29" stroke-linejoin="round" stroke-width="1" stroke="#fff" stroke-linecap="round"/><path fill="#00000000" d="M158.65,170.19s-15.49,-0.34 -32.99,-13.8c-12.37,-9.52 -19.7,-13.65 -25.55,-14.79" stroke-linejoin="round" stroke-width="1" stroke="#fff" stroke-linecap="round"/><path fill="#fff" d="M158.5,72.31c-4.14,2.18 -4.69,-2.19 -4.68,-4.83a0.25,0.25 0,0 0,0.08 -0.12c0.3,-1.21 0,-7.26 -3.48,-9.68 -3.07,-2.13 -7.14,-3.97 -10.93,-3.98a8.07,8.07 0,0 0,-6.48 3.87c-1.71,2.58 -1.56,5.57 -1.7,8.55 -0.14,3.01 -0.42,6.26 0.17,9.24 0.8,3.97 4.5,12.32 9.01,12.32 4.09,0 11.35,-6.12 13.84,-9.72a4.3,4.3 0,0 0,1.53 -0.88c0.93,-0.8 2.78,-2.12 2.65,-4.77"/><path fill="#00000000" d="M158.5,72.31c-4.14,2.18 -4.69,-2.19 -4.68,-4.83a0.25,0.25 0,0 0,0.08 -0.12c0.3,-1.21 0,-7.26 -3.48,-9.68 -3.07,-2.13 -7.14,-3.97 -10.93,-3.98a8.07,8.07 0,0 0,-6.48 3.87c-1.71,2.58 -1.56,5.57 -1.7,8.55 -0.14,3.01 -0.42,6.26 0.17,9.24 0.8,3.97 4.5,12.32 9.01,12.32 4.09,0 11.35,-6.12 13.84,-9.72a4.3,4.3 0,0 0,1.53 -0.88C156.78,76.28 158.64,74.95 158.5,72.31Z" stroke-linejoin="round" stroke-width="1" stroke="#263238" stroke-linecap="round"/><path fill="#00000000" d="M140.49,69.66s-1.85,5.7 -1.72,6.36 2.38,0 2.38,0" stroke-linejoin="round" stroke-width="1" stroke="#263238" stroke-linecap="round"/><path fill="#00000000" d="M138.77,78.4s2.45,1.84 6.36,-1.06" stroke-linejoin="round" stroke-width="1" stroke="#263238" stroke-linecap="round"/><path fill="#00000000" d="M144.73,71.64s1.33,2.78 5.56,1.19" stroke-linejoin="round" stroke-width="1" stroke="#263238" stroke-linecap="round"/><path fill="#00000000" d="M132.67,68.33s0.8,2.78 5.03,1.72" stroke-linejoin="round" stroke-width="1" stroke="#263238" stroke-linecap="round"/><path fill="#00000000" d="M140.18,66.22s-1.5,-5.41 -6.45,-2.65" stroke-linejoin="round" stroke-width="1" stroke="#263238" stroke-linecap="round"/><path fill="#00000000" d="M146.98,72.04m-5.23,0.85a5.3,5.3 125.79,1 1,10.46 -1.7a5.3,5.3 125.79,1 1,-10.46 1.7" stroke-linejoin="round" stroke-width="1" stroke="#263238" stroke-linecap="round"/><path fill="#00000000" d="M134.79,69.66m-5.3,0a5.3,5.3 0,1 1,10.6 0a5.3,5.3 0,1 1,-10.6 0" stroke-linejoin="round" stroke-width="1" stroke="#263238" stroke-linecap="round"/><path fill="#00000000" d="M152.01,73.1L156.39,72.31" stroke-linejoin="round" stroke-width="1" stroke="#263238" stroke-linecap="round"/><path fill="#00000000" d="M129.63,68.33L131.22,67.14" stroke-linejoin="round" stroke-width="1" stroke="#263238" stroke-linecap="round"/><path fill="#263238" d="M134.85,55.71s4.69,-2.87 6.35,-0.15 9.2,20.79 17.3,16.75 -0.06,-17.35 -7.93,-21.59 -14.52,-0.6 -15.73,4.99"/><path fill="#00000000" d="M134.85,55.71s4.69,-2.87 6.35,-0.15 9.2,20.79 17.3,16.75 -0.06,-17.35 -7.93,-21.59S136.06,50.11 134.85,55.71Z" stroke-linejoin="round" stroke-width="1" stroke="#263238" stroke-linecap="round"/><path fill="#00000000" d="M139.5,53.69s-2.65,-2.23 -4.19,-1.2a3.05,3.05 0,0 0,-1.54 2.31" stroke-linejoin="round" stroke-width="1" stroke="#fff" stroke-linecap="round"/><path fill="#00000000" d="M158.79,67.56a7.1,7.1 0,0 0,1.95 0.87" stroke-linejoin="round" stroke-width="1" stroke="#fff" stroke-linecap="round"/><path fill="#00000000" d="M138.39,48.12s4.63,-5.14 9.76,2.83c3.37,5.23 5.31,10.45 7.84,13.87" stroke-linejoin="round" stroke-width="1" stroke="#fff" stroke-linecap="round"/><path fill="#00000000" d="M145.96,65.47a6.07,6.07 0,0 1,6.89 1.06" stroke-linejoin="round" stroke-width="1" stroke="#fff" stroke-linecap="round"/><path fill="#00000000" d="M139.05,116.94s5.08,6.35 13.46,6.35" stroke-linejoin="round" stroke-width="1" stroke="#263238" stroke-linecap="round"/></g></svg>