<svg xmlns="http://www.w3.org/2000/svg" width="25.25" height="26.642" viewBox="0 0 25.25 26.642">
  <g id="Iconly_Light_Home" data-name="Iconly/Light/Home" transform="translate(0.75 0.892)">
    <g id="Home">
      <path id="Home-2" data-name="Home" d="M8.322,23.464V19.631a1.783,1.783,0,0,1,1.78-1.774h3.608A1.783,1.783,0,0,1,15.5,19.631h0v3.845A1.531,1.531,0,0,0,17,25h2.405a4.32,4.32,0,0,0,4.341-4.3h0V9.8a3.049,3.049,0,0,0-1.2-2.381L14.322.857a3.975,3.975,0,0,0-4.93,0L1.2,7.428A3.026,3.026,0,0,0,0,9.809V20.7A4.32,4.32,0,0,0,4.341,25H6.746A1.544,1.544,0,0,0,8.3,23.464h0" fill="none" stroke="#afafaf" stroke-linecap="round" stroke-linejoin="round" stroke-miterlimit="10" stroke-width="1.5"/>
    </g>
  </g>
</svg>
