<svg id="Iconly_Bold_Setting" data-name="Iconly/Bold/Setting" xmlns="http://www.w3.org/2000/svg" width="24.996" height="26" viewBox="0 0 24.996 26">
  <g id="Setting" transform="translate(0 0)">
    <path id="Setting-2" data-name="Setting" d="M13.416,26h-1.83a2.7,2.7,0,0,1-2.8-2.665,2.492,2.492,0,0,0-2.475-2.366,2.1,2.1,0,0,0-1.183.3,2.873,2.873,0,0,1-1.426.39,2.8,2.8,0,0,1-2.393-1.351L.385,18.746a2.578,2.578,0,0,1-.027-2.665,2.759,2.759,0,0,1,1.075-1.026,2.162,2.162,0,0,0,.848-.832,2.293,2.293,0,0,0,.25-1.775,2.391,2.391,0,0,0-1.124-1.476,2.642,2.642,0,0,1-1-3.68l.9-1.534A2.814,2.814,0,0,1,5.1,4.771a2.517,2.517,0,0,0,1.18.291A2.585,2.585,0,0,0,8.48,3.874,1.981,1.981,0,0,0,8.79,2.73a2.3,2.3,0,0,1,.377-1.377A2.905,2.905,0,0,1,11.546,0h1.9a2.841,2.841,0,0,1,2.395,1.353A2.294,2.294,0,0,1,16.2,2.73a1.989,1.989,0,0,0,.309,1.144,2.592,2.592,0,0,0,2.2,1.188A2.559,2.559,0,0,0,19.9,4.771a2.8,2.8,0,0,1,3.779.987l.9,1.534a2.61,2.61,0,0,1,.3,2.052,2.639,2.639,0,0,1-1.293,1.628,2.381,2.381,0,0,0-1.123,1.479,2.278,2.278,0,0,0,.262,1.771,2.054,2.054,0,0,0,.834.832,3.019,3.019,0,0,1,1.09,1.026,2.613,2.613,0,0,1-.026,2.665l-.941,1.561a2.782,2.782,0,0,1-3.806.962,2.153,2.153,0,0,0-1.183-.3A2.486,2.486,0,0,0,16.2,23.335,2.7,2.7,0,0,1,13.416,26Zm-.9-16.666A3.755,3.755,0,0,0,8.7,13.013a3.571,3.571,0,0,0,1.118,2.6,3.881,3.881,0,0,0,2.7,1.068,3.685,3.685,0,0,0,3.779-3.667,3.612,3.612,0,0,0-1.1-2.6A3.81,3.81,0,0,0,12.514,9.334Z" fill="#0f4c90"/>
  </g>
</svg>
